<?xml version="1.0" encoding="utf-8"?>
<!-- Generator: Adobe Illustrator 15.1.0, SVG Export Plug-In . SVG Version: 6.00 Build 0)  -->
<!DOCTYPE svg PUBLIC "-//W3C//DTD SVG 1.1//EN" "http://www.w3.org/Graphics/SVG/1.1/DTD/svg11.dtd">
<svg version="1.1" id="Layer_1" xmlns:sketch="http://www.bohemiancoding.com/sketch/ns"
	 xmlns="http://www.w3.org/2000/svg" xmlns:xlink="http://www.w3.org/1999/xlink" x="0px" y="0px" width="300px" height="226px"
	 viewBox="0 0 300 226" enable-background="new 0 0 300 226" xml:space="preserve">
<title>Untitled 2</title>
<g sketch:type="MSShapeGroup">
	<path id="Shape" fill="#0A0203" stroke="#0A0203" stroke-width="0.094" d="M24.767,3.523c1.012-1.559,2.919-2.271,4.688-2.421
		c1.484-0.18,2.941,0.317,4.312,0.837c1.365,0.697,2.513,1.744,3.745,2.645c1.093,0.739,1.91,1.821,2.597,2.935
		c0.985,2.288,1.613,4.786,1.343,7.297c-0.425,0.495-0.777,1.057-1.269,1.486c-0.841,0.62-1.808,1.039-2.773,1.419l3.164,3.485
		c1.173,1.147,1.826,2.685,2.719,4.039c0.782-0.967,2.036-1.259,2.986-2.008c1.388-1.017,2.662-2.223,4.228-2.97
		c0.485-0.165,1.014-0.085,1.519-0.125l0.46,0.327c0.049,1.706,0.915,3.22,1.445,4.801c0.863,2.728,1.732,5.463,2.867,8.091
		c0.297,0.012,0.591-0.007,0.888-0.017c0.344-1.724,1.276-3.223,2.088-4.749c0.816-1.336,1.38-2.825,2.377-4.047
		c1.244-1.599,2.328-3.355,3.857-4.699l0.923,0.022c0.092,2.038-0.094,4.094,0.307,6.11c0.349,1.539,0.109,3.128,0.354,4.676
		c0.292,2.231-0.183,4.552,0.529,6.725c1.041,1.814,2.84,2.998,4.01,4.711c1.774,1.954,3.552,3.91,5.289,5.901
		c1.002,1.164,1.724,2.546,2.771,3.675c0.826,0.922,1.472,1.998,2.333,2.893c0.421,0.427,0.759,0.927,1.069,1.441
		c0.512,0.857,1.316,1.484,1.843,2.333c0.524,0.719,0.985,1.539,1.692,2.086c0.678-0.252,1.259-0.817,2.048-0.625l0.453,0.5
		c0.465,0.075,1.079-0.002,1.314,0.517c0.534,1.064,1.373,1.949,1.796,3.073c0.873-0.57,1.833-0.992,2.716-1.549
		c1.289-0.779,2.825-0.537,4.252-0.592c1.222-0.07,2.409,0.512,3.626,0.187c1.328-0.35,2.429,0.842,3.755,0.679
		c0.824-0.245,1.551-0.724,2.33-1.079c1.618-0.655,3.275-1.202,4.93-1.749c1.791-0.899,3.728-1.419,5.633-1.993
		c1.957-0.297,3.908-0.677,5.887-0.812c1.012-0.127,2.006-0.52,3.04-0.325c2.543,0.347,5.096,0.722,7.666,0.687
		c1.821-0.107,3.646,0.11,5.435,0.445c1.447,0.265,2.691,1.107,4.114,1.451c1.254,0.38,2.395,1.064,3.651,1.449
		c2.365,1.039,4.248,2.928,6.621,3.962c1.539,0.982,3.237,1.686,4.734,2.733c1.212,1.032,2.639,1.794,3.729,2.975
		c0.658,0.662,1.152,1.499,1.947,2.016c0.694,0.472,1.508,0.829,1.951,1.591c1.912,1.267,3.201,3.233,4.782,4.861
		c0.778,0.787,1.325,1.849,2.325,2.386c0.189-0.26,0.361-0.535,0.533-0.807c0.558-0.287,1.119-0.595,1.739-0.727
		c1.865-0.345,3.763-0.49,5.657-0.425c1.657-0.075,3.156,0.759,4.777,0.964c1.365,0.107,2.535,0.897,3.837,1.254
		c0.764,0.26,1.608,0.252,2.345,0.61c1.023,0.487,2.08,0.899,3.109,1.374c1.486,1.017,2.908,2.131,4.459,3.05
		c0.906,0.717,1.723,1.549,2.697,2.183c0.526-0.984,1.758-1.002,2.653-1.464c1.863-0.879,3.759-1.741,5.455-2.925
		c1.296-0.827,2.653-1.551,4.077-2.128c3.08-1.559,6.07-3.342,9.367-4.404c0.908-0.432,1.986-0.515,2.752-1.224
		c-0.735-1.212-0.156-2.578,0.037-3.852c0.178-1.232,0.977-2.248,1.83-3.095c1.668-1.254,3.744-1.866,5.816-1.811
		c1.883-0.18,3.671,0.839,4.873,2.238c0.693,0.972,1.275,2.046,1.704,3.16c-0.408,0.954-0.544,1.983-0.826,2.973
		c-0.341,1.154-1.385,1.841-2.182,2.658c-1.312,0.997-2.593,2.166-4.282,2.416c-1.408-0.255-2.832-0.427-4.245-0.677
		c-0.737,0.647-1.202,1.566-2.038,2.098c-0.544,0.347-0.873,0.922-1.353,1.336c-1.302,1.019-2.523,2.138-3.829,3.145
		c-1.741,1.177-3.555,2.241-5.301,3.405c-1.049,0.782-1.989,1.729-3.187,2.293c-2.335,1.134-4.131,3.073-6.224,4.569
		c0.547,1.192,0.773,2.491,1.027,3.772c0.189,1.666-0.237,3.322-0.224,4.991c-0.067,1.007,0.108,2.061-0.271,3.023
		c-0.274,0.852-0.862,1.569-1.039,2.458c-0.334,1.456-0.981,2.808-1.422,4.229c-0.239,0.821-0.789,1.491-1.158,2.253
		c-0.692,1.334-1.125,2.798-1.922,4.082c-0.355,0.609-0.803,1.159-1.147,1.775c-0.717,1.336-1.737,2.467-2.513,3.761
		c-1.039,1.104-2.229,2.091-3.045,3.39c-1.096,0.944-1.979,2.161-3.34,2.745c-0.021,0.524-0.032,1.049-0.025,1.576
		c-0.393,0.669-0.698,1.448-1.344,1.916c-0.491,0.312-1.061,0.01-1.553-0.127c-0.213-1.175-0.33-2.363-0.351-3.556l-0.104,0.463
		c-0.062-0.473-0.136-0.944-0.207-1.412c-0.1-0.658-0.156-1.323-0.203-1.985l-0.758-0.026c-0.549-0.565-1.096-1.14-1.469-1.84
		c-1.054-0.962-1.736-2.238-2.729-3.25c-0.641-0.799-1.581-1.344-2.062-2.261c-0.903-0.974-1.649-2.101-2.704-2.923
		c-2.277-2.182-4.933-3.893-7.484-5.719c-1.562-0.861-3.109-1.763-4.789-2.37c-2.417-1.481-5.328-1.551-7.943-2.488
		c-1.186-0.502-2.488-0.265-3.729-0.425c-2.135-0.337-4.309-0.117-6.459-0.115c-2.282-0.082-4.546,0.63-6.49,1.811
		c-0.737,0.48-1.687,0.277-2.437,0.739c-2.033,1.129-4.186,2.017-6.357,2.825c-1.741,0.898-3.419,1.93-5.202,2.753
		c-1.685,1.087-3.577,1.796-5.217,2.963c-2.639,1.366-5.046,3.13-7.706,4.457c-2.442,1.666-5.264,2.705-7.555,4.609
		c-1.769,0.991-3.255,2.383-4.779,3.707c-0.641,0.585-1.158,1.302-1.882,1.788c-0.952,0.621-1.467,1.705-2.397,2.359l-0.082,0.555
		c-0.292,0.17-0.589,0.33-0.866,0.524c-0.062,0.48,0.096,0.962,0.124,1.444c0.129,0.954-0.069,1.939,0.208,2.878
		c0.425,1.599,0.725,3.235,0.834,4.889c0.453,4.239,1.383,8.46,3.159,12.341c0.7,1.248,0.965,2.679,1.605,3.953
		c0.549,1.111,0.95,2.301,1.598,3.361c0.646,0.867,1.059,1.884,1.694,2.76c1.039,1.534,1.697,3.29,2.696,4.85
		c0.416,0.793,0.999,1.535,1.126,2.451c0.314,1.783,0.732,3.562,1.395,5.25c-0.136,0.513-0.158,1.1-0.537,1.51
		c-0.71,0.812-1.516,1.58-2.526,1.992c-1.655,0.793-3.52,0.81-5.311,0.938c-1.224,0.177-2.486,0.311-3.693-0.037
		c-0.416-0.189-0.735,0.167-1.041,0.387c-1.474,0.211-2.793,0.952-4.252,1.217c-1.022,0.381-1.974,0.939-3.035,1.228
		c-2.137,0.974-4.522,1.224-6.845,1.224c-1.915,0.183-3.824,0.396-5.729,0.67c-2.075-0.025-4.101,0.6-6.182,0.541
		c-1.333-0.031-2.679,0.058-4-0.17c-2.625-0.385-5.088-1.42-7.565-2.328c-1.252-0.455-2.417-1.139-3.723-1.431
		c-2.167-0.526-4.193-1.511-6.103-2.657c-0.594-0.423-1.044-1.01-1.558-1.517c-2.145,0.829-4.005,2.283-6.216,2.958
		c-2.585,0.736-4.722,2.451-7.161,3.53c-2.612,1.504-5.408,2.643-8.042,4.106c-2.778,1.549-5.709,2.78-8.604,4.09
		c-0.873,0.414-1.887,0.609-2.61,1.293c0.069,1.937-0.354,3.873-1.088,5.651c-0.534,0.765-0.955,1.589-1.306,2.453
		c-1.816,2.485-4.502,4.151-7.268,5.378c-0.992,0.521-2.152,0.303-3.221,0.232c-1.076-0.2-2.234-0.26-3.181-0.873
		c-1.333-0.896-2.281-2.322-2.644-3.896c-0.03-1.068-0.116-2.146-0.002-3.21c0.26-1.087,0.856-2.051,1.262-3.085
		c0.522-1.355,1.66-2.309,2.647-3.316c1.088-1,2.165-2.092,3.535-2.693c1.61-0.561,3.31-0.989,5.027-0.771
		c1.032,0.159,2.271-0.051,3.053,0.801c0.965-0.664,1.529-1.695,2.259-2.578c2.442-1.743,4.559-3.922,7.015-5.65
		c1.326-1.244,2.729-2.406,3.958-3.747c1.331-1.244,2.348-2.805,3.807-3.909c1.385-1.1,2.432-2.568,3.864-3.603
		c1.254-0.869,2.256-2.041,3.438-2.998c1.408-1.144,2.664-2.474,4.158-3.511l-0.435-0.486c-0.46-1.699-0.623-3.447-0.559-5.204
		c0.109-1.919-0.485-3.83-0.121-5.737c0.198-1.617,1.111-3.011,1.561-4.553c0.472-1.172,1.049-2.303,1.652-3.41
		c1.459-1.826,2.315-4.052,3.706-5.928c1.247-1.824,2.479-3.662,3.926-5.333c0.72-0.989,1.687-1.769,2.805-2.248
		c-0.27-1.067-0.129-2.188-0.418-3.25c-0.544-2.206-0.772-4.474-1.168-6.707c-0.609-1.881-1.375-3.762-1.361-5.778
		c-0.613-2.728-1.412-5.562-0.792-8.369c0.453-1.965,0.45-4.008,0.997-5.953c0.294-1.147,0.336-2.373,0.903-3.432
		c0.703-1.404,0.938-2.988,1.588-4.409c1.197-1.816,2.127-3.802,3.369-5.588c0.853-0.989,1.712-1.976,2.545-2.98
		c2.12-2.016,4.284-3.987,6.429-5.978c1.962-1.674,3.377-3.935,5.539-5.391c0.853-0.727,1.764-1.379,2.642-2.073
		c0.95-1.112,1.056-2.67,1.044-4.077c-0.082-1.466,1.069-2.7,2.377-3.158c1.101-0.382,2.115-0.957,3.092-1.594
		c-0.942-0.972-1.502-2.226-2.31-3.3c-0.173-0.297-0.468-0.57-0.44-0.942c0.148-0.375,0.359-0.719,0.554-1.067
		c0.369-0.28,0.722-0.577,1.069-0.884c-4.327-4.339-8.225-9.091-11.951-13.957c-1.596-1.801-3.206-3.58-4.945-5.241
		c-1.182-1.014-2.157-2.273-2.983-3.59c-0.416-2.663-0.124-5.376-0.586-8.034c-0.742,1.159-1.361,2.396-2.053,3.587
		c-0.992,1.876-1.831,3.862-3.181,5.516c-0.406,0.49-0.898,0.942-1.118,1.556c-0.428,1.259-0.139,2.653-0.596,3.905
		c-0.327,0.087-0.663,0.132-0.997,0.19c-0.596-0.787-0.359-1.811-0.626-2.708c-0.903-3.133-1.464-6.355-2.407-9.475
		c-0.49-1.102-0.742-2.286-1.116-3.427c-0.369-1.184-0.866-2.323-1.133-3.537c-0.542,0.332-1.017,0.752-1.529,1.124
		c-1.318,0.782-2.877,1.142-4.022,2.208c-0.648,0.65-1.895,0.819-2.496,0.027c-0.707-0.887-1.259-1.889-1.91-2.818
		c-1.18-1.674-1.759-3.667-2.686-5.478c-0.502-1.471-1.259-2.823-1.905-4.229c-1.489,0.182-3.001-0.097-4.341-0.769
		c-1.071-0.555-2.392-0.832-3.065-1.941c-1.066-1.119-1.769-2.496-2.553-3.815c-0.809-2.023-1.425-4.154-1.536-6.345
		c-0.101-0.909,0.651-1.541,1.113-2.218L24.767,3.523z M25.215,6.266c-0.136,0.625,0.136,1.249,0.225,1.864
		c0.552,1.739,0.888,3.702,2.226,5.034c0.801,1.207,1.556,2.683,3.02,3.16c1.185,0.417,2.372,0.879,3.636,0.994
		c0.01-0.605-0.131-1.384,0.512-1.721c0.683-0.06,1.192,0.435,1.682,0.832c0.757-0.215,1.563-0.347,2.241-0.769
		c0.611-0.742,1.121-1.691,0.95-2.69c-0.158-1.188-0.208-2.418-0.668-3.54l0.042,0.287c-0.71-2.476-2.776-4.167-4.787-5.568
		c-1.64-0.834-3.478-1.616-5.351-1.259c-1.704,0.372-3.201,1.689-3.73,3.377L25.215,6.266z M37.623,20.548
		c0.735,1.344,1.341,2.753,1.981,4.142c0.609,1.396,1.608,2.568,2.256,3.944c0.233,0.46,0.477,0.912,0.73,1.361
		c1.86-1.401,4.223-1.851,6.063-3.273l0.829-1.057l0.784-0.025c0.383,0.635,0.792,1.307,0.767,2.081
		c-0.045,1.889,1.17,3.455,1.477,5.266c0.168,0.989,0.547,1.919,0.883,2.858c0.388,2.156,1.118,4.232,1.536,6.385
		c0.522-0.532,1.007-1.097,1.467-1.681c2.466-3.915,4.515-8.076,6.533-12.236c0.203-0.332,0.566-0.517,0.856-0.764l0.72,0.402
		c-0.101,1.756,0,3.515-0.104,5.268c0.027,1.321-0.289,2.646-0.045,3.957c0.111,0.677,0.074,1.366,0.161,2.046
		c0.537,0.869,1.4,1.466,1.996,2.288c0.836,1.147,2.001,1.971,2.959,3c1.019,0.982,1.808,2.171,2.766,3.21
		c1.155,1.099,1.882,2.551,2.887,3.78c2.669,2.99,5.16,6.14,7.782,9.176c0.544,0.572,0.9,1.284,1.187,2.016
		c0.675-0.375,1.534-0.734,1.845-1.481c-0.977-1.659-2.36-3.02-3.74-4.332c-1.135-1.426-2.38-2.773-3.312-4.349
		c-1.492-1.596-2.689-3.44-4.116-5.094c-0.814-1.174-2.009-1.986-2.877-3.11c-1.603-2.028-3.53-3.755-5.182-5.736
		c-0.463-1.404-0.176-2.9-0.411-4.342c-0.411-2.83,0.208-5.716-0.297-8.531c-0.089-1.022-0.074-2.048-0.126-3.073
		c-1.276,1.254-2.323,2.715-3.29,4.217c-0.651,1.279-1.524,2.426-2.162,3.712c-0.626,1.294-1.561,2.396-2.296,3.625
		c-0.475,0.912-1.61,0.989-2.508,0.939c-0.294-0.557-0.665-1.074-0.918-1.651c-0.346-1.009-0.43-2.086-0.72-3.113
		c-0.809-2.456-1.19-5.056-2.367-7.377l-0.411-1.212c-1.294,0.615-2.241,1.724-3.404,2.531c-1.101,0.607-2.338,0.944-3.347,1.724
		c-0.591,0.007-1.182,0.012-1.771,0.06c-0.45-0.842-0.985-1.649-1.769-2.211c-1.249-0.902-1.84-2.461-3.085-3.352l0.092-0.2
		c-0.059-0.782-1.069-0.002-0.299,0.21V20.548z M121.707,59.184c-1.882,0.05-3.567,0.994-5.395,1.324
		c-1.484,0.32-2.736,1.277-4.247,1.499c-1.489,0.642-3.067,1.104-4.448,1.978c-0.752,0.5-1.724,0.702-2.234,1.511
		c-2.503,1.257-5.232,2.026-7.612,3.535c-3.599,1.761-7.142,3.655-10.578,5.721c-2.481,1.259-4.893,2.643-7.354,3.932
		c-0.111,0.452-0.225,0.904-0.346,1.356c-0.51,0.027-1.093-0.172-1.534,0.175c-1.549,0.972-2.847,2.278-4.223,3.475
		c-1.882,2.266-4.143,4.159-6.306,6.143c-1.128,1.197-2.345,2.298-3.508,3.457c-1.487,1.739-2.884,3.567-3.951,5.608
		c-0.136,0.145-0.245,0.317-0.366,0.477c1.321-0.402,2.59-1.047,3.993-1.097c1.066-0.022,2.118-0.242,3.184-0.267
		c1.897,0.103,3.758-0.41,5.66-0.285c1.519-0.145,2.991,0.277,4.492,0.375c2.914,0.959,5.895,1.809,8.571,3.36
		c2.652,1.159,5.264,2.561,7.322,4.641c2.155,1.814,4.364,3.607,6.08,5.866c0.883,1.404,1.858,2.748,2.721,4.164
		c1.821-2.016,4.378-3.198,6.061-5.366c0.626-0.909,1.687-1.292,2.508-1.973c1.296-1.167,2.855-1.966,4.299-2.92
		c1.638-0.854,3.335-1.594,4.965-2.466c1.002-0.547,2.157-0.672,3.181-1.162c1.019-0.5,2.251-0.587,3.008-1.534
		c1.87-0.455,3.508-1.524,5.271-2.256c1.071-0.405,2.152-0.792,3.201-1.252c1.306-0.582,2.776-0.947,3.79-2.026
		c2.637-0.779,5.056-2.116,7.671-2.955c0.957-0.385,1.848-0.949,2.872-1.152c1.079-0.212,2.093-0.719,3.201-0.769
		c1.67,0.04,3.265-0.595,4.941-0.525c1.605,0.067,3.109-0.934,4.713-0.515c1.09,0.19,1.815,1.192,2.85,1.549
		c1.904,0.662,3.816,1.341,5.593,2.313c1.069,0.57,2.231,0.997,3.181,1.766c1.502,1.526,3.424,2.536,4.965,4.017
		c1.354,1.459,2.902,2.735,4.088,4.349c0.477,0.667,0.945,1.341,1.39,2.033c0.95,1.539,2.254,2.823,3.114,4.424
		c1.056,1.529,1.57,3.33,2.162,5.074c0.66,2.013,1.467,4.002,1.759,6.118c0.378,1.586,1.157,3.072,1.259,4.729
		c0.758,1.395,0.512,3.028,0.893,4.522c0.289,1.198,0.473,2.426,0.6,3.655l0.336,0.01c0.049-1.067,0.208-2.123,0.284-3.188
		c0.059-1.669-0.245-3.319-0.421-4.971c0.007-1.636-0.008-3.285-0.268-4.904c-0.225-0.927-0.479-1.849-0.631-2.79
		c-1.506-4.724-2.393-9.698-4.689-14.134c-1.234-3.327-2.094-6.85-3.98-9.885c-1.488-1.921-2.345-4.242-3.842-6.155
		c-0.758-0.984-1.887-1.566-2.699-2.496c-1.207-1.119-2.143-2.503-3.426-3.54c-1.62-1.661-3.043-3.505-4.616-5.211
		c-0.631-0.984-1.67-1.561-2.454-2.401c-0.605-0.632-1.333-1.122-1.996-1.689c-1.865-1.881-3.968-3.532-6.221-4.909
		c-1.455-0.55-2.646-1.566-4.018-2.273c-1.766-1.004-3.438-2.163-5.214-3.148c-1.361-0.684-2.82-1.129-4.188-1.799
		c-1.442-0.332-2.944-0.532-4.425-0.397c0.458,0.482,1.123,0.617,1.699,0.902c0.769,0.35,1.385,0.982,2.184,1.269
		c1.497,1.371,3.481,2.058,4.905,3.525c2.295,2.018,4.206,4.422,6.417,6.528c2.664,3.045,5.234,6.22,7.14,9.818
		c0.849,1.876,1.751,3.725,2.64,5.578c0.635,1.037,0.412,2.306,0.444,3.465l-0.658,0.175c-0.967-2.863-2.427-5.506-3.772-8.196
		c-1.457-2.611-3.09-5.129-4.984-7.439c-1.223-1.579-2.34-3.265-3.839-4.596c-1.017-0.904-1.833-2.006-2.788-2.963
		c-1.724-1.237-3.241-2.785-5.138-3.76c-1.012-0.552-2.038-1.084-2.973-1.764c-1.39-0.757-2.887-1.316-4.435-1.639
		c-1.529-0.47-3.053-0.964-4.616-1.294c-0.967-0.287-1.962-0.47-2.926-0.769c-1.259-0.427-2.565,0.125-3.849-0.042
		c-1.489,0.082-2.949,0.425-4.44,0.455L121.707,59.184z M88.384,61.502c-1.598,1.172-3.194,2.368-4.997,3.2
		c0.151,0.325,0.312,0.697,0.71,0.764l-0.213,0.105c0.831,0.812,1.544,1.736,1.905,2.86c1.474-0.902,2.949-1.829,4.275-2.95
		c0.391-0.342,0.846-0.602,1.323-0.802c-0.643-0.752-0.945-1.739-1.652-2.441c-0.161-0.32-0.309-0.642-0.448-0.969
		C88.965,61.247,88.629,61.262,88.384,61.502L88.384,61.502z M93.613,65.129c-0.853,0.819-1.964,1.277-2.884,2.006
		c-1.202,1.004-2.602,1.711-3.899,2.573c-1.467,0.717-2.691,1.859-4.218,2.463c-0.606,0.3-1.304,0.572-1.652,1.197
		c-0.537,0.949-0.366,2.071-0.5,3.11c2.016-1.059,4.027-2.141,6.093-3.105c1.398-0.435,2.372-1.626,3.693-2.218
		c1.014-0.457,1.929-1.112,2.959-1.536c0.71-0.305,1.175-0.949,1.761-1.426c1.393-0.877,2.84-1.661,4.302-2.418l0.106,0.07
		c0.604-0.24,1.229-0.42,1.858-0.575c1.153-0.475,2.298-0.967,3.448-1.449c0.275,0.39,0.799-0.33,0.304-0.42
		c-1.076,0.297-2.204,0.28-3.307,0.322c-1.65-0.215-3.3-0.505-4.97-0.412C95.762,64.06,94.716,64.657,93.613,65.129L93.613,65.129z
		 M234.034,69.9c-0.829,0.375-1.774,0.689-2.283,1.506c-0.792,0.942-0.915,2.213-0.868,3.396l-0.24,1.279
		c0.6,0.032,1.314-0.24,1.807,0.245l0.568,0.072c0.317,0.272,0.637,0.537,0.971,0.794l-0.463,1.541l-0.148-0.365l-0.152,0.659
		c0.938,0.407,2.004,0.492,3.018,0.56c1.462-0.625,3.037-1.277,4.015-2.616c0.945-0.962,1.168-2.328,1.531-3.572l-0.289-0.455
		c-0.11-0.325-0.237-0.657-0.479-0.902c-0.621-1.237-1.756-2.101-2.992-2.643c-1.364-0.335-2.663,0.31-3.992,0.497L234.034,69.9z
		 M230.352,77.737c-1.728,0.822-3.553,1.384-5.285,2.188l-0.004,0.017c-0.889,0.155-1.559,0.789-2.365,1.134
		c-2.192,0.972-4.242,2.246-6.456,3.163c-1.793,0.884-3.335,2.216-5.19,2.983c-1.533,0.942-3.211,1.594-4.799,2.421l-0.48-0.105
		c0.406,0.854,1.133,1.486,1.621,2.288c0.584,0.999,1.16,2.013,1.539,3.118c0.076,0.34,0.192,0.669,0.309,1.002
		c1.869-1.399,3.594-3.04,5.682-4.132c2.189-1.189,3.869-3.138,6.094-4.269c2.285-1.444,4.664-2.87,6.361-5.036
		c1.299-0.819,2.523-1.804,3.482-3.02c0.459-0.59,1.123-1.114,1.136-1.929c-0.554-0.022-1.138-0.077-1.646,0.177H230.352z
		 M180.624,81.057c-0.14,0.252-0.289,0.497-0.453,0.734c-0.848,0.2-1.714,0.312-2.555,0.552c-0.187,0.13-0.587,0.185-0.374,0.485
		c1.15,1.336,2.558,2.408,3.802,3.647c0.647,0.769,1.244,1.586,1.868,2.381c0.01,0.372,0.031,0.747,0.054,1.122
		c0.929,1.112,1.593,2.411,2.397,3.612c1.033,1.646,1.39,3.595,2.191,5.348c0.836,1.841,1.336,3.812,2.078,5.688
		c1.318,2.511,1.697,5.371,2.741,7.991c0.787,1.816,0.972,3.822,1.729,5.652c0.146,1.496,0.908,2.865,0.875,4.39
		c0.187,1.834-0.125,3.69,0.195,5.513c0.23,1.239,0.067,2.498,0.139,3.75c0.845-0.787,1.692-1.566,2.654-2.206
		c1.896-2.202,3.911-4.387,5.135-7.067c0.49-1.184,1.615-2.021,1.828-3.33c0.346-0.793,0.648-1.608,0.952-2.42l-0.897-0.478
		c-0.072-0.487-0.188-1.099,0.423-1.276c0.252-3.096-0.072-6.219-0.994-9.182c-0.366-2.153-1.063-4.232-1.915-6.235
		c-0.965-2.221-1.9-4.459-3.082-6.57c-1.273-1.739-2.193-3.737-3.691-5.306c-1.174-1.099-2.033-2.578-3.522-3.3
		c-0.646-0.832-1.343-1.789-2.424-2.031c-1.823-0.527-3.632-1.117-5.462-1.606c-1.229-0.127-2.481-0.12-3.693,0.14L180.624,81.057z
		 M193.826,83.423c-0.114,0.3,0.002,0.437,0.349,0.415c0.464,0.355,0.858,0.787,1.192,1.269l0.012,0.002
		c1.868,1.919,3.635,3.979,4.952,6.333c0.594,1.142,1.459,2.121,1.935,3.332c1.467,3.273,3.055,6.555,3.683,10.125
		c0.262,1.566,0.717,3.09,1.046,4.644c0.304,1.374,0.21,2.788,0.242,4.184c0.695-1.489,1.082-3.1,1.756-4.599
		c0.51-1.521,0.779-3.13,0.46-4.721c0.344-1.886-0.007-3.792-0.604-5.588l-0.119-0.015c-0.082-0.572-0.146-1.159-0.402-1.679
		c-0.609-1.139-1.034-2.366-1.77-3.437c-0.891-1.841-2.361-3.282-3.828-4.656c-0.529-0.515-1.033-1.169-1.816-1.254
		c-1.069-0.857-2.157-1.701-3.325-2.413l-0.058-0.107l-0.286-0.017l0.215,0.01c-0.997-0.527-1.994-1.062-3.024-1.511
		c-0.09-0.347-0.293-0.455-0.611-0.315L193.826,83.423z M158.057,91.292c-1.846,0.472-3.777,0.097-5.629,0.552
		c-2.266,0.202-4.416,0.997-6.533,1.784c-2.167,1.147-4.515,1.861-6.83,2.63c-1.066,0.515-2.09,1.119-3.228,1.471
		c-2.649,1.476-5.613,2.233-8.307,3.62c-1.608,0.877-3.297,1.589-4.933,2.413c-3.594,1.292-6.936,3.193-10.11,5.311
		c-0.893,0.56-1.685,1.381-2.783,1.491c-0.401,0.402-0.784,0.824-1.143,1.267c-1.771,2.153-4.119,3.707-5.927,5.823
		c-0.158,0.166-0.272,0.361-0.341,0.582c-0.871,2.845-1.323,5.787-1.828,8.716c-0.658,3.013-0.841,6.143-0.366,9.198
		c0.742-1.354,2.157-2.063,3.169-3.17c0.908-0.994,2.016-1.77,2.973-2.711c0.947-0.916,2.122-1.525,3.179-2.293
		c2.31-1.676,4.913-2.865,7.332-4.361c1.835-1.145,3.735-2.178,5.553-3.348c0.636-0.41,1.311-0.748,1.999-1.057
		c1.316-0.585,2.461-1.484,3.753-2.116c2.521-1.241,4.883-2.782,7.379-4.067c2.093-0.724,3.926-2.011,5.912-2.963
		c1.843-0.465,3.401-1.766,5.331-1.916c4.514-0.58,9.09-0.704,13.623-0.237c1.106,0.132,2.13,0.607,3.218,0.827
		c5.06,1.107,9.896,3.33,13.942,6.6c0.915,0.65,1.875,1.239,2.688,2.022c1.666,1.295,3.422,2.576,4.595,4.373
		c0.584,0.894,1.489,1.541,1.929,2.535l0.469,0.271c0.652,1.063,1.672,1.871,2.146,3.05c0.453,1.102,1.113,2.113,1.988,2.92
		c-0.139-1.408-0.776-2.705-0.895-4.117c-0.146-1.953-1.061-3.717-1.544-5.588c-0.542-2.096-1.086-4.209-1.991-6.18
		c-0.5-1.111-0.799-2.303-1.38-3.377c-0.75-1.501-1.892-2.74-2.84-4.109c-0.876-1.284-1.796-2.538-2.647-3.837
		c-0.47-0.684-0.875-1.441-1.543-1.954c-1.381-1.097-2.725-2.251-3.924-3.55c-0.539-0.57-1.076-1.174-1.801-1.499
		c-1.677-0.797-2.889-2.338-4.633-3.013c-1.405-0.709-2.988-0.954-4.352-1.759C161.9,90.997,159.922,90.805,158.057,91.292
		L158.057,91.292z M69.579,99.238c-1.868,0.117-3.743,0.202-5.598,0.437l0.294,0.012c-1.333,0.242-2.627,0.669-3.951,0.954
		c-0.594,0.23-1.427,0.237-1.734,0.899c-0.537,1.184-1.034,2.391-1.442,3.625c-0.91,3.26-1.118,6.652-1.563,9.995
		c-0.153,2.923,0.544,5.788,0.876,8.673c0.19,1.937,1.217,3.646,1.504,5.558c0.094,2.276,1.079,4.402,1.148,6.686
		c0.552-0.217,1.133-0.322,1.727-0.325c0.299-0.11,0.601-0.22,0.905-0.319l0.032-0.115c2.644-0.325,5.318-0.824,7.983-0.445
		c1.714,0.268,3.481-0.04,5.173,0.4c1.202,0.302,2.459,0.256,3.654,0.59c2.256,0.809,4.129,2.433,6.407,3.223
		c2.78,1.371,5.323,3.178,7.745,5.111c1.524,1.365,2.808,2.982,4.366,4.312c1.457,1.446,2.362,3.335,3.532,5.009
		c-0.032-1.148-0.411-2.248-0.505-3.387c-0.275-2.678-0.826-5.312-1.2-7.977c-0.178-1.113,0.012-2.277-0.317-3.364
		c0.094-1.826-0.272-3.632-0.245-5.456c-0.02-2.016,0.176-4.018,0.299-6.025c0.275-2.158,1.041-4.227,1.205-6.399
		c0.146-1.093,0.613-2.138,0.497-3.261c0.054-0.729-0.529-1.248-0.821-1.855c-1.937-3.64-5.123-6.323-8.136-9.016
		c-1.202-1.354-2.842-2.143-4.329-3.113c-1.784-1.024-3.772-1.584-5.667-2.346c-1.447-0.595-3.02-0.794-4.46-1.414
		C74.623,98.938,72.045,98.948,69.579,99.238L69.579,99.238z M62.148,136.739l0.092,0.112c-0.915,0.176-1.816,0.424-2.709,0.684
		l-0.057,0.632c-2.323,2.013-4.228,4.467-5.986,6.981c-0.848,1.048-1.291,2.384-2.286,3.315c-0.601,1.677-1.944,2.945-2.701,4.547
		c1.153-0.067,2.318-0.37,3.466-0.112l0.767,0.086c1.598,0.227,3.231,0.33,4.764,0.877c1.487,0.6,3.092,0.902,4.482,1.736
		c2.221,1.396,4.589,2.742,6.189,4.894c0.945,1.114,1.994,2.138,2.887,3.295c1.267,1.935,2.395,3.957,3.372,6.055
		c0.777,1.334,1.111,2.853,1.561,4.317c0.25,1.156,0.334,2.348,0.754,3.465c0.116,1.379,0.322,2.753,0.346,4.145
		c-0.366,0.922-0.198,1.953-0.378,2.918c-0.364,2.146-0.994,4.236-1.704,6.287c2.733-0.33,5.464-0.707,8.218-0.842
		c2.182-0.406,4.408-0.42,6.602-0.742c1.212-0.162,2.377-0.56,3.565-0.854c1.546-0.475,3.156-0.934,4.433-1.991
		c0.777-0.09,1.615-0.103,2.293-0.547c0.497-0.478,0.915-1.034,1.405-1.517c0.252-1.276,0.475-2.562,0.544-3.861
		c0.111-2.342,0.816-4.626,0.698-6.982c0.002-2.096-0.119-4.199,0.21-6.277c-0.111-2.481-0.339-5.082-1.526-7.308
		c-0.411-1.194-0.841-2.383-1.336-3.542c-0.91-1.681-1.613-3.486-2.803-5.001c-1.113-1.829-2.934-3.008-4.297-4.616
		c-1.551-1.623-3.285-3.082-5.175-4.289c-2.192-1.591-4.779-2.48-7.077-3.895c-1.459-0.898-3.038-1.725-4.769-1.874
		c-1.999-0.092-3.965-0.532-5.964-0.606c-1.563-0.002-3.132-0.082-4.69,0.047C64.269,136.404,63.223,136.682,62.148,136.739
		L62.148,136.739z M47.731,154.338l-0.24,0.564l-0.28,0.709c-0.586,1.555-1.234,3.105-1.472,4.765
		c-0.045,1.164-0.067,2.338,0.04,3.502c0.195,1.649,0.195,3.315,0.468,4.956c0.015,0.352,0.252,0.714,0.579,0.382
		c0.497-0.387,0.814-1.528,1.596-1.099c0.868,0.689,2.014,0.16,2.968,0.574c2.078,0.822,4.079,1.935,5.729,3.466
		c0.846,1.137,1.445,2.473,1.875,3.825c0.186,1.355,0.361,2.768-0.099,4.094c-0.181,0.822-1.024,1.174-1.591,1.691
		c-0.972,0.836-2.216,1.207-3.33,1.795c1.492,1.334,3.379,2.049,5.2,2.785c2.585,0.729,5.054,1.807,7.481,2.955
		c1.645,0.809,3.478,1.133,5.291,1.264c0.769-0.629,1.6-1.262,1.974-2.226c0.824-1.966,1.168-4.102,1.346-6.218
		c0.094-1.268,0.505-2.578-0.017-3.811c-0.48-2.485-1.051-4.959-1.942-7.328c-0.994-1.941-1.91-3.936-3.164-5.721
		c-0.703-0.795-1.348-1.637-2.08-2.404c-0.779-0.813-1.336-1.83-2.221-2.543c-1.314-1.084-2.555-2.287-4.082-3.072
		c-1.192-0.723-2.528-1.133-3.805-1.666c-2.13-0.882-4.423-1.344-6.721-1.441C50.071,154.282,48.864,153.975,47.731,154.338
		L47.731,154.338z M104.181,163.883c0.23,1.816,0.542,3.645,0.354,5.483c0.012,2.798,0.002,5.603-0.317,8.389
		c-0.569,2.546-0.49,5.185-1.017,7.742c1.398,0.45,2.87,0.002,4.289-0.092c1.984-0.255,4.495-0.45,5.452-2.552
		c0.062-1.217-0.505-2.34-0.868-3.467c-0.331-0.947-0.339-2.008-0.881-2.873c-1.296-2.201-2.39-4.526-3.817-6.645
		c-0.747-1.192-1.341-2.473-2.024-3.7c-0.423-0.747-0.581-1.644-1.173-2.286H104.181z M47.652,170.755
		c-0.757,0.734-1.526,1.459-2.39,2.071l-0.01,0.095c-1.408,0.728-2.59,1.813-3.706,2.929c-1.398,1.164-2.731,2.405-4.141,3.557
		c-1.506,1.48-2.986,2.988-4.621,4.326c-1.764,2.076-3.654,4.043-5.578,5.969c-0.972,0.617-1.709,1.525-2.615,2.232
		c-1.069,0.827-2.09,1.715-3.092,2.623c-0.69,0.643-1.576,1.06-2.157,1.821c-0.322,0.407-0.633,0.822-0.96,1.228
		c0.237,0.297,0.475,0.6,0.705,0.906l0.477-0.42l0.188-0.31l0.153,0.252c4.732-1.531,9.024-4.122,13.613-6.015l4.403-2.097
		c2.57-1.039,4.67-3.018,7.337-3.83c0.945-0.317,1.821-0.804,2.701-1.267c1.138-0.612,2.348-1.082,3.453-1.754
		c1.821-0.999,3.785-1.76,5.484-2.969c1.227-1.276,0.468-3.172,0.233-4.688l-0.126,0.052c-0.48-1.017-0.97-2.103-1.952-2.725
		c-1.531-1.037-3.152-2.046-4.977-2.432c-0.819-0.109-1.786-0.205-2.424,0.442L47.652,170.755z M9.356,198.584
		c-1.022,0.49-1.744,1.396-2.632,2.076c-2.147,1.738-3.76,4.318-3.861,7.15c0.087,0.871,0.455,1.674,0.98,2.367
		c1.247,1.709,3.577,2.081,5.531,1.749c1.519-0.276,2.627-1.431,3.918-2.183c0.591-0.377,1.244-0.702,1.692-1.26
		c1.6-2.232,2.954-4.766,3.211-7.551c-0.119-0.24-0.257-0.466-0.413-0.678c-0.21-0.547-0.601-0.992-0.992-1.411
		c-0.223-0.437-0.416-0.887-0.606-1.336c-2.298,0.002-4.73-0.01-6.827,1.077L9.356,198.584z"/>
	<path id="Shape_1_" fill="#0A0203" stroke="#0A0203" stroke-width="0.094" d="M124.438,66.46c1.237-0.045,2.476-0.125,3.703-0.302
		c1.699,0.442,3.473,0.37,5.177,0.799c2.021,0.137,4.005,0.542,5.986,0.944c2.041,1.252,4.485,1.978,6.043,3.915
		c1.895,1.751,3.06,4.274,3.117,6.867c-0.425,1.606-1.378,3.467-3.144,3.812c-2.652,0.647-5.118,1.864-7.733,2.628
		c-2.964,0.964-5.635,2.576-8.23,4.279c-1.67,1.004-3.434,1.844-5.049,2.943c-1.425,0.982-2.961,1.781-4.445,2.665
		c-1.207,0.859-2.335,1.826-3.498,2.745c-2.276,1.609-4.801,2.795-7.189,4.219c-1.145,0.255-2.194,0.839-3.367,0.977
		c-2.464,0.272-5.257,0.362-7.28-1.329c-1.111-0.677-1.516-1.973-2.273-2.965c-0.841-1.059-0.856-2.458-1.064-3.735
		c-0.178-1.089-0.027-2.188,0.131-3.268c0.143-2.018,1.163-3.817,2.058-5.578c0.873-1.954,2.343-3.62,2.773-5.768
		c1.13-1.272,1.868-2.848,3.045-4.084c0.989-1.007,1.675-2.276,2.761-3.193c2.105-2.471,5.311-3.405,8.136-4.754
		c2.293-0.792,4.73-1.067,7.129-1.324c1.083-0.092,2.12-0.497,3.211-0.495L124.438,66.46z M120.715,68.374
		c-2.899,0.437-5.84,0.962-8.505,2.246c-1.18,0.712-2.429,1.307-3.572,2.078c-1.539,1.194-2.637,2.843-3.98,4.234
		c-1.036,1.217-1.989,2.503-3.02,3.725c-1.13,1.299-1.412,3.118-2.588,4.384c-0.66,1.282-1.074,2.69-1.591,4.039
		c-0.346,1.526-1.076,2.988-0.913,4.594c-0.094,2.148,1.022,4.052,2.118,5.798c1.034,1.282,2.664,1.811,4.242,1.964
		c0.989-0.18,2.006-0.025,2.993-0.23c2.036-0.367,3.827-1.486,5.556-2.571c2.132-1.124,4.168-2.446,6.061-3.949
		c1.202-0.797,2.315-1.739,3.636-2.338c2.098-1.524,4.416-2.69,6.627-4.029c1.858-0.962,3.547-2.228,5.514-2.973
		c1.556-0.962,3.332-1.406,4.947-2.246c1.034-0.495,2.204-0.61,3.228-1.137c1.158-0.562,2.471-0.647,3.639-1.174
		c1.264-0.752,1.749-2.421,1.408-3.812c-0.099-1.409-1.044-2.498-1.714-3.667c-1.863-1.991-4.331-3.29-6.874-4.172
		c-2.32-0.6-4.715-0.772-7.067-1.194c-1.712-0.317-3.456-0.087-5.18-0.17C123.995,67.699,122.4,68.438,120.715,68.374z"/>
	<path id="Shape_2_" fill="#0A0203" stroke="#0A0203" stroke-width="0.094" d="M114.163,73.138c0.267-0.43,0.532-1.034,1.153-0.834
		c0.754,0.625,1.479,1.297,2.353,1.759c1.509,0.922,2.919,2.026,4.151,3.302l0.408-0.015c0.297-0.774,0.475-1.584,0.698-2.381
		c0.245-0.659,1.022-0.387,1.546-0.385l0.23,0.555c0.002,1.629,1.291,2.745,1.991,4.089c1.425-0.789,1.929-2.483,2.699-3.825
		c0.537-0.877,0.235-2.218,1.173-2.823c0.584-0.067,0.933,0.5,1.237,0.907c0.762,1.132,1.751,2.078,2.558,3.178
		c0.393-0.435,0.92-0.832,0.994-1.459c0.148-0.52,0.035-1.159,0.448-1.566c0.663-0.235,1.323,0.14,1.949,0.325
		c1.553,0.612,3.174,1.072,4.618,1.936c0.591,0.397,1.326,0.402,1.962,0.684c0.24,0.345,0.203,0.792,0.282,1.192
		c-1.412,0.655-2.602-0.61-3.861-1.077c-1.237-0.432-2.412-1.024-3.666-1.404c-0.512,1.077-1.368,1.919-2.043,2.888
		c-0.267,0.405-0.715,0.699-1.212,0.6c-0.297-0.487-0.492-1.027-0.801-1.501c-0.579-0.934-1.469-1.594-2.246-2.343
		c-0.519,1.194-0.975,2.416-1.492,3.612c-0.438,1.112-1.516,1.799-1.902,2.945c-0.522,0.172-1.076,0.337-1.549-0.047
		c-0.237-1.521-0.982-2.973-2.137-3.989c-0.141,0.692-0.287,1.384-0.396,2.083c-0.378,0.175-0.804,0.472-1.227,0.25l-1.741-1.961
		c-1.076-0.949-2.286-1.739-3.54-2.423c0.512,2.048,1.155,4.202,0.71,6.32c0.156,1.189,0.48,2.346,0.698,3.522
		c0.151,0.672-0.673,0.927-1.182,0.769c-0.886-0.21-1.796-0.135-2.686-0.25c-0.74-0.295-1.469-0.632-2.261-0.762
		c0.027,0.732,0.569,1.252,0.844,1.891c0.247,0.707,0.257,1.466,0.44,2.191c0.054,0.367,0.195,0.772-0.002,1.122
		c-0.435,0.28-0.997,0.435-1.482,0.192c-1.202-0.475-2.486-0.622-3.743-0.864c0.653,1.102,1.591,1.996,2.239,3.098
		c0.396,0.542-0.173,1.316-0.789,1.244c-1.643-0.137-3.29,0.015-4.933-0.127c-0.312,1.571-1.056,3.003-1.356,4.579
		c-0.48-0.092-1.113,0.147-1.462-0.3c-0.544-0.487,0.084-1.189,0.22-1.741c0.562-1.127,0.579-2.421,1.041-3.57
		c1.262-1.371,3.216-0.187,4.784-0.437c-0.383-1.224-1.467-1.931-2.204-2.893c-0.468-0.64,0.124-1.204,0.601-1.579
		c1.811,0.335,3.73,0.267,5.442,1.037c-0.126-1.591-1.17-2.875-1.549-4.392c0.366-0.29,0.715-0.61,1.118-0.847
		c0.688-0.17,1.343,0.155,1.974,0.387c1.007,0.4,2.098,0.485,3.169,0.545c-0.522-2.091-0.119-4.254-0.433-6.358
		c-0.611-1.681-1.153-3.392-1.833-5.049H114.163z"/>
	<path id="Shape_3_" fill="#0A0203" stroke="#0A0203" stroke-width="0.094" d="M185.336,83.757c0.764-1.102,2.706-1.107,3.23,0.237
		c0.802-0.037,1.732-0.167,2.302,0.557c0.801,1.476,2.118,2.848,2.026,4.651c0.066,0.852-0.621,1.489-1.24,1.951
		c-0.941,0.63-2.119,1.174-3.262,0.819c-1.408-0.477-2.231-1.851-2.86-3.118c-0.802-1.566-0.834-3.467-0.195-5.099L185.336,83.757z
		 M186.697,85.173c-0.34,1.876,0.328,4.052,2.051,5.016c0.542,0.385,1.189-0.012,1.723-0.21
		C189.379,88.26,188.343,86.424,186.697,85.173L186.697,85.173z M188.229,85.203c1.019,0.952,1.877,2.063,2.943,2.96
		c-0.378-0.814-0.818-1.606-1.367-2.313C189.445,85.338,188.775,85.323,188.229,85.203z"/>
	<path id="Shape_4_" fill="#0A0203" stroke="#0A0203" stroke-width="0.094" d="M192.711,96.135c1.007-0.547,2.359-0.407,3.008,0.625
		c1.116,0.267,2.043,1.034,2.625,2.021c0.831,1.504,1.699,3.01,2.133,4.694c-0.502,1.184-1.455,2.063-2.435,2.843
		c-1.153,0.042-2.558,0.115-3.347-0.907c-1.004-1.321-2.062-2.728-2.293-4.424c-0.319-1.162-0.45-2.361-0.256-3.557
		C192.348,97.005,192.529,96.571,192.711,96.135L192.711,96.135z M193.732,97.894c-0.594,2.108,0.455,4.172,1.605,5.868
		c0.512,0.597,1.307,0.812,2.006,1.097c-0.054-2.378-1.348-4.424-2.639-6.315l0.762-0.017c0.534,0.677,1.123,1.312,1.702,1.956
		c0.759,0.879,0.876,2.131,1.667,2.983c-0.289-1.164-1.076-2.101-1.559-3.18c-0.65-1.369-1.864-2.318-3.142-3.05
		C193.979,97.441,193.848,97.663,193.732,97.894L193.732,97.894z"/>
	<path id="Shape_5_" fill="#0A0203" stroke="#0A0203" stroke-width="0.094" d="M198.741,111.049
		c1.588-0.135,2.909,0.957,4.104,1.864c0.934,0.728,0.512,1.993,0.762,2.995c0.101,1.224,0.176,2.744-0.896,3.585
		c-0.905,0.651-1.897,1.403-3.075,1.307c-1.556,0.202-2.572-1.36-2.904-2.694c-0.719-1.875-0.396-4.027,0.595-5.736
		C197.693,111.847,198.119,111.26,198.741,111.049L198.741,111.049z M200.502,113.137c0.275,0.859,0.721,1.656,0.957,2.528
		c0.116,0.81,0.059,1.634,0.064,2.451l0.383-0.181C202.475,116.271,202.344,113.904,200.502,113.137L200.502,113.137z
		 M199.156,119.422c0.322-0.37,0.809-0.688,0.855-1.224c0.416-1.731-0.223-3.507-1.244-4.894
		C197.259,115.027,197.445,117.896,199.156,119.422z"/>
	<path id="Shape_6_" fill="#0A0203" stroke="#0A0203" stroke-width="0.094" d="M60.673,139.812c1.687-0.287,3.471-0.525,5.138-0.002
		c1.229,0.521,2.625,0.959,3.461,2.082c0.46,0.922,0.67,1.979,0.646,3.01c0.022,0.963-0.557,1.781-0.977,2.602
		c-0.376,0.773-1.215,1.079-1.89,1.516c-2.08,0.433-4.247-0.131-6.058-1.199c-1.177-0.541-2.169-1.403-2.973-2.42l0.032-0.615
		l-0.515-0.282c0.376-0.919,0.052-1.951,0.468-2.853c0.809-0.729,1.717-1.321,2.669-1.84L60.673,139.812z M62.142,140.886
		c-1.291,0.497-2.696,1.089-3.476,2.312c0.277,0.24,0.554,0.484,0.841,0.719c0.67-0.874,1.591-1.496,2.447-2.168
		c0.747-0.6,1.746-0.507,2.639-0.625C63.787,140.993,62.953,140.536,62.142,140.886z M60.663,145.41
		c0.428,0.602,1.14,0.882,1.774,1.201c1.061,0.49,2.192,0.978,3.384,0.878c1.009-0.05,1.912-0.837,2.127-1.834
		c0.398-0.864,0.366-1.931-0.351-2.613c-1.459-0.207-2.981-0.55-4.43-0.185C62.239,143.591,61.215,144.328,60.663,145.41
		L60.663,145.41z"/>
	<path id="Shape_7_" fill="#0A0203" stroke="#0A0203" stroke-width="0.094" d="M76.805,151.323c2.595-1.791,6.165-1.234,8.688,0.417
		c1.343,0.892,2.268,2.248,3.201,3.535c0.866,1.259,0.747,2.867,0.717,4.322c-0.522,1.334-0.992,2.805-2.214,3.664
		c-0.814,0.729-1.967,0.975-3.008,0.662c-1.254-0.439-2.548-0.872-3.589-1.73c-1.019-0.81-1.539-2.096-2.615-2.84
		c-0.134-0.271-0.223-0.57-0.47-0.75c-1.148-0.922-1.714-2.338-2.142-3.707c-0.109-1.354,0.272-2.777,1.432-3.571V151.323z
		 M77.124,153.629c1.447-0.467,2.954-0.6,4.45-0.789c1.838,0.407,3.711,1.094,5.059,2.479c-0.695-0.864-1.365-1.786-2.31-2.392
		c-1.566-1.032-3.53-1.474-5.373-1.124C78.166,152.195,77.515,152.835,77.124,153.629z M78.017,154.98
		c-1.098,0.531-0.119,1.84,0.443,2.436l0.087,0.564c0.693,0.242,1.323,0.647,1.722,1.285c1.163,1.658,3.006,2.887,5.039,3.027
		c1.556-0.467,2.204-2.354,2.202-3.848c-1.687-1.639-3.387-3.637-5.855-3.953c-1.212-0.045-2.538-0.115-3.636,0.49L78.017,154.98z"
		/>
	<path id="Shape_8_" fill="#0A0203" stroke="#0A0203" stroke-width="0.094" d="M88.357,174.4c1.242-1.01,2.83-1.664,4.44-1.58
		c1.14,0.296,2.469,0.685,2.978,1.882c1.92,3.5,0.51,8.526-3.033,10.382c-1.138,0.709-2.55,0.869-3.852,0.641
		c-1.363-0.338-2.404-1.586-2.654-2.959c-0.198-1.066,0.062-2.143,0.327-3.173c0.396-1.78,0.416-3.821,1.793-5.194L88.357,174.4z
		 M91.605,174.445c1.356,2.431,1.593,5.248,1.853,7.971c1.017-1.094,1.603-2.557,1.586-4.059c-0.062-1.289-0.297-2.703-1.323-3.586
		C93.021,174.622,92.321,174.467,91.605,174.445L91.605,174.445z M88.599,177.385c-0.329,1.042-0.235,2.163-0.599,3.195
		c-0.69,1.459,0.566,3.645,2.254,3.432c0.435-0.49,0.903-0.949,1.393-1.379c0.168-2.591-0.198-5.322-1.596-7.552
		C89.388,175.711,88.797,176.467,88.599,177.385L88.599,177.385z"/>
</g>
<g sketch:type="MSShapeGroup">
	<path id="Shape_9_" fill="#F8B059" stroke="#F8B059" stroke-width="0.094" d="M25.215,6.266c0.529-1.689,2.026-3.005,3.73-3.377
		c1.873-0.357,3.711,0.425,5.351,1.259c2.011,1.401,4.077,3.093,4.787,5.568l0.04,0.247c-2.155,0.525-3.978-1.044-5.878-1.751
		c-1.294-0.225-2.501-0.772-3.78-1.039c-1.378,0.147-2.61,0.959-4.025,0.957C25.351,7.515,25.079,6.891,25.215,6.266z"/>
	<path id="Shape_10_" fill="#F8B059" stroke="#F8B059" stroke-width="0.094" d="M234.034,69.9c1.327-0.187,2.627-0.832,3.993-0.497
		c1.233,0.542,2.369,1.406,2.99,2.643c-1.107-0.472-2.345-0.949-3.552-0.6c-1.19,0.347-2.516,0.597-3.411,1.536
		c-0.591,0.57-1.056,1.274-1.731,1.749c-0.455,0.175-0.968,0.05-1.44,0.072c-0.047-1.184,0.077-2.456,0.868-3.396
		C232.261,70.589,233.206,70.274,234.034,69.9z"/>
	<path id="Shape_11_" fill="#F8B059" stroke="#F8B059" stroke-width="0.094" d="M222.697,81.076
		c0.806-0.345,1.477-0.979,2.365-1.134c-0.268,1.237-1.064,2.378-2.264,2.84c-1.645,0.642-3.268,1.346-4.851,2.131
		c-1.408,0.687-2.456,1.929-3.869,2.608c-0.992,0.48-2.08,0.702-3.08,1.164c-0.845,0.36-1.618,0.887-2.508,1.129
		c-0.747,0.195-1.509-0.015-2.239-0.172c1.588-0.827,3.266-1.479,4.799-2.421c1.855-0.767,3.396-2.098,5.19-2.983
		C218.455,83.321,220.506,82.047,222.697,81.076L222.697,81.076z"/>
	<path id="Shape_12_" fill="#F8B059" stroke="#F8B059" stroke-width="0.094" d="M194.175,83.837l0.263-0.1
		c1.031,0.45,2.027,0.984,3.024,1.511l-0.215-0.01c-0.623-0.032-1.247-0.082-1.868-0.13l-0.012-0.002
		C195.033,84.624,194.637,84.192,194.175,83.837L194.175,83.837z"/>
	<path id="Shape_13_" fill="#F8B059" stroke="#F8B059" stroke-width="0.094" d="M197.591,85.363
		c1.168,0.712,2.257,1.556,3.325,2.413C199.469,87.649,198.105,86.774,197.591,85.363z"/>
	<path id="Shape_14_" fill="#F8B059" stroke="#F8B059" stroke-width="0.094" d="M47.491,154.902l0.24-0.564
		c0.816,0.055,1.63-0.029,2.442-0.107c-0.383,1.263-0.893,2.479-1.403,3.692c-0.67,1.591-0.767,3.341-1.254,4.986
		c-0.267,0.882-0.354,1.804-0.356,2.723c0.025,1.142-0.566,2.151-0.913,3.203c-0.272-1.642-0.272-3.308-0.468-4.956
		c-0.106-1.164-0.084-2.338-0.04-3.502c0.237-1.659,0.886-3.21,1.472-4.764l0.28-0.709V154.902z"/>
	<path id="Shape_15_" fill="#F8B059" stroke="#F8B059" stroke-width="0.094" d="M41.547,175.85c1.116-1.115,2.298-2.201,3.706-2.929
		c-0.099,0.784-0.143,1.631-0.609,2.304c-0.581,0.818-1.494,1.309-2.118,2.09c-0.628,0.783-1.222,1.606-2.009,2.242
		c-0.908,0.741-1.887,1.396-2.711,2.24c-1.086,1.102-2.474,1.821-3.636,2.83c-0.67,0.577-1.346,1.157-2.118,1.6
		c-1.764,0.946-3.03,2.603-4.846,3.475c1.925-1.926,3.814-3.893,5.578-5.969c1.635-1.338,3.114-2.844,4.621-4.326
		C38.815,178.254,40.148,177.014,41.547,175.85L41.547,175.85z"/>
	<path id="Shape_16_" fill="#F8B059" stroke="#F8B059" stroke-width="0.094" d="M9.356,198.584c2.098-1.087,4.529-1.074,6.827-1.077
		c0.19,0.45,0.383,0.899,0.606,1.336c-0.898,0.556-1.91,0.904-2.971,0.917c-1.534,0.086-2.882,0.889-4.26,1.491
		c-0.811,0.385-1.714,0.699-2.306,1.416c-0.633,0.797-0.982,1.791-1.675,2.546c-0.853,0.917-1.727,1.826-2.716,2.596
		c0.101-2.83,1.714-5.41,3.861-7.149c0.888-0.679,1.61-1.586,2.632-2.076L9.356,198.584z"/>
</g>
<g sketch:type="MSShapeGroup">
	<path id="Shape_17_" fill="#F6941E" stroke="#F6941E" stroke-width="0.094" d="M25.44,8.13c1.415,0.002,2.647-0.809,4.025-0.957
		c1.279,0.267,2.486,0.814,3.78,1.039c1.9,0.707,3.723,2.276,5.878,1.751l0.304,2.246c-1.417,1.072-2.595,2.845-4.532,2.878
		c-1.385,0.067-2.827,0.055-4.126-0.505c-1.049-0.435-2.1-0.877-3.102-1.419C26.329,11.832,25.992,9.868,25.44,8.13L25.44,8.13z"/>
	<path id="Shape_18_" fill="#F6941E" stroke="#F6941E" stroke-width="0.094" d="M120.716,68.374c1.685,0.065,3.28-0.674,4.965-0.6
		c1.724,0.082,3.468-0.147,5.18,0.17c2.353,0.422,4.747,0.595,7.067,1.194c2.543,0.882,5.012,2.181,6.874,4.172
		c0.67,1.169,1.615,2.258,1.714,3.667c0.341,1.391-0.143,3.06-1.408,3.812c-1.168,0.527-2.481,0.612-3.639,1.174
		c-1.024,0.527-2.194,0.642-3.228,1.137c-1.615,0.839-3.391,1.284-4.947,2.246c-1.967,0.744-3.656,2.011-5.514,2.973
		c-2.212,1.339-4.529,2.506-6.627,4.029c-1.321,0.6-2.434,1.541-3.636,2.338c-1.892,1.504-3.928,2.825-6.061,3.949
		c-1.729,1.084-3.52,2.203-5.556,2.571c-0.987,0.205-2.004,0.05-2.993,0.23c-1.578-0.152-3.208-0.682-4.242-1.964
		c-1.096-1.746-2.212-3.65-2.118-5.798c-0.163-1.606,0.566-3.068,0.913-4.594c0.517-1.349,0.93-2.758,1.591-4.039
		c1.175-1.267,1.457-3.085,2.588-4.384c1.032-1.222,1.984-2.508,3.02-3.725c1.343-1.391,2.442-3.04,3.98-4.234
		c1.143-0.772,2.392-1.366,3.572-2.078C114.875,69.336,117.816,68.811,120.716,68.374z M114.163,73.138
		c0.68,1.656,1.222,3.367,1.833,5.049c0.314,2.103-0.089,4.267,0.433,6.358c-1.071-0.06-2.162-0.145-3.169-0.545
		c-0.631-0.232-1.286-0.557-1.974-0.387c-0.403,0.237-0.752,0.557-1.118,0.847c0.378,1.516,1.422,2.8,1.549,4.392
		c-1.712-0.769-3.631-0.702-5.442-1.037c-0.477,0.375-1.069,0.939-0.601,1.579c0.737,0.962,1.821,1.669,2.204,2.893
		c-1.568,0.25-3.523-0.934-4.784,0.437c-0.463,1.149-0.48,2.443-1.041,3.57c-0.136,0.552-0.764,1.254-0.22,1.741
		c0.349,0.447,0.982,0.207,1.462,0.3c0.299-1.576,1.044-3.008,1.356-4.579c1.643,0.142,3.29-0.01,4.933,0.127
		c0.616,0.072,1.185-0.702,0.789-1.244c-0.648-1.102-1.586-1.996-2.239-3.098c1.257,0.242,2.541,0.39,3.743,0.864
		c0.485,0.242,1.046,0.087,1.482-0.192c0.198-0.35,0.057-0.754,0.002-1.122c-0.183-0.724-0.193-1.484-0.44-2.191
		c-0.275-0.64-0.816-1.159-0.844-1.891c0.792,0.13,1.521,0.467,2.261,0.762c0.891,0.115,1.801,0.04,2.686,0.25
		c0.51,0.157,1.333-0.097,1.182-0.769c-0.218-1.177-0.542-2.333-0.698-3.522c0.445-2.118-0.198-4.272-0.71-6.32
		c1.254,0.684,2.464,1.474,3.54,2.423l1.741,1.961c0.423,0.222,0.848-0.075,1.227-0.25c0.109-0.699,0.255-1.391,0.396-2.083
		c1.155,1.017,1.9,2.468,2.137,3.989c0.472,0.385,1.027,0.22,1.549,0.047c0.386-1.147,1.464-1.834,1.902-2.945
		c0.517-1.197,0.972-2.418,1.492-3.612c0.777,0.749,1.667,1.409,2.246,2.343c0.309,0.475,0.505,1.014,0.801,1.501
		c0.497,0.1,0.945-0.195,1.212-0.6c0.675-0.969,1.531-1.811,2.043-2.888c1.254,0.38,2.429,0.972,3.666,1.404
		c1.259,0.467,2.449,1.731,3.861,1.077c-0.079-0.4-0.042-0.847-0.282-1.192c-0.636-0.282-1.37-0.287-1.962-0.684
		c-1.445-0.864-3.065-1.324-4.618-1.936c-0.626-0.185-1.286-0.56-1.949-0.325c-0.413,0.407-0.299,1.047-0.448,1.566
		c-0.074,0.627-0.601,1.024-0.994,1.459c-0.806-1.099-1.796-2.046-2.558-3.178c-0.304-0.407-0.653-0.974-1.237-0.907
		c-0.938,0.605-0.636,1.946-1.173,2.823c-0.769,1.341-1.274,3.035-2.699,3.825c-0.7-1.344-1.989-2.461-1.991-4.089l-0.23-0.555
		c-0.524-0.002-1.301-0.275-1.546,0.385c-0.223,0.797-0.401,1.606-0.698,2.381l-0.408,0.015c-1.232-1.277-2.642-2.381-4.151-3.302
		c-0.873-0.462-1.598-1.134-2.353-1.759c-0.621-0.2-0.886,0.405-1.153,0.834H114.163z"/>
	<path id="Shape_19_" fill="#F6941E" stroke="#F6941E" stroke-width="0.094" d="M237.465,71.446c1.207-0.35,2.444,0.127,3.553,0.6
		c0.241,0.245,0.369,0.577,0.479,0.902l0.087,0.49c-0.811,0.834-1.6,1.706-2.068,2.793c-0.762,1.616-2.814,1.269-4.131,2.086
		c-0.566,0.192-1.16,0.897-1.761,0.557l-0.099-0.137c0.121-0.525,0.336-1.019,0.463-1.541c-0.334-0.257-0.653-0.522-0.971-0.794
		l-0.568-0.072c-0.492-0.485-1.207-0.212-1.807-0.245l0.24-1.279c0.473-0.022,0.985,0.102,1.44-0.072
		c0.675-0.475,1.14-1.179,1.731-1.749c0.896-0.939,2.221-1.189,3.411-1.536L237.465,71.446z"/>
	<path id="Shape_20_" fill="#F6941E" stroke="#F6941E" stroke-width="0.094" d="M230.352,77.737c0.506-0.255,1.09-0.2,1.645-0.177
		c-0.012,0.814-0.678,1.339-1.135,1.929c-0.961,1.217-2.185,2.201-3.483,3.02c-4.997,1.736-8.839,5.563-13.267,8.319
		c-1.834,1.184-3.875,2.298-4.9,4.344l-0.279-0.227c-0.379-1.104-0.955-2.118-1.539-3.118c-0.488-0.802-1.215-1.434-1.621-2.288
		l0.48,0.105c0.73,0.157,1.492,0.367,2.239,0.172c0.891-0.242,1.665-0.769,2.508-1.129c0.999-0.462,2.088-0.684,3.08-1.164
		c1.412-0.679,2.461-1.921,3.869-2.608c1.583-0.784,3.206-1.489,4.851-2.131c1.2-0.462,1.996-1.604,2.264-2.84l0.004-0.017
		c1.732-0.804,3.558-1.366,5.285-2.188V77.737z"/>
	<path id="Shape_21_" fill="#F6941E" stroke="#F6941E" stroke-width="0.094" d="M195.38,85.108c0.621,0.047,1.244,0.097,1.868,0.13
		l0.287,0.017l0.057,0.107c0.516,1.411,1.879,2.286,3.325,2.413c0.784,0.085,1.286,0.739,1.815,1.254
		c1.468,1.374,2.939,2.815,3.83,4.656c0.734,1.072,1.16,2.298,1.769,3.437c0.257,0.52,0.321,1.107,0.403,1.679l0.119,0.015
		c0.596,1.796,0.946,3.702,0.604,5.588c0.318,1.591,0.049,3.2-0.46,4.721c-0.673,1.499-1.062,3.11-1.756,4.6
		c-0.032-1.396,0.062-2.811-0.242-4.185c-0.329-1.554-0.784-3.078-1.046-4.644c-0.628-3.57-2.217-6.852-3.684-10.125
		c-0.475-1.212-1.34-2.191-1.934-3.332c-1.318-2.353-3.085-4.414-4.952-6.333L195.38,85.108z"/>
	<path id="Shape_22_" fill="#F6941E" stroke="#F6941E" stroke-width="0.094" d="M47.731,154.338c1.133-0.361,2.34-0.055,3.503-0.199
		c2.298,0.096,4.591,0.56,6.721,1.44c1.276,0.535,2.612,0.944,3.805,1.666c1.526,0.784,2.768,1.987,4.082,3.073
		c0.886,0.712,1.442,1.729,2.221,2.543c0.732,0.767,1.378,1.608,2.08,2.402c1.254,1.786,2.169,3.78,3.164,5.721
		c0.891,2.371,1.462,4.845,1.942,7.33c0.104,0.903,0.054,1.813-0.005,2.718c-0.92-0.052-1.89-0.017-2.733-0.45
		c-1.051-0.54-2.098-1.114-3.258-1.387c-1.034-0.246-1.979-0.743-2.971-1.111c-0.982-0.365-2.051-0.257-3.062-0.462
		c-0.703-0.245-1.249-0.822-1.974-1.013c-0.754-0.201-1.519-0.359-2.251-0.629c-0.43-1.352-1.029-2.688-1.875-3.826
		c-1.65-1.53-3.651-2.643-5.729-3.465c-0.955-0.414-2.1,0.115-2.968-0.574c-0.782-0.43-1.098,0.712-1.596,1.099
		c-0.327,0.332-0.564-0.03-0.579-0.382c0.346-1.053,0.938-2.061,0.913-3.203c0.002-0.919,0.089-1.841,0.356-2.723
		c0.487-1.646,0.584-3.396,1.254-4.986c0.51-1.214,1.019-2.431,1.403-3.691c-0.811,0.076-1.625,0.162-2.442,0.106L47.731,154.338z"
		/>
	<path id="Shape_23_" fill="#F6941E" stroke="#F6941E" stroke-width="0.094" d="M47.652,170.756
		c0.638-0.646,1.605-0.552,2.424-0.441c1.826,0.385,3.446,1.394,4.977,2.431c0.982,0.622,1.472,1.709,1.952,2.725
		c-1.801,0.562-3.011,2.073-4.458,3.19c-1.39,1.007-2.607,2.232-3.983,3.265c-1.759,1.604-3.913,2.646-6.016,3.707
		c-2.113,1.177-4.089,2.606-6.301,3.604c-1.274,0.582-2.325,1.552-3.584,2.162c-1.92,0.967-3.857,1.949-5.934,2.516
		c-1.21,0.312-2.244,1.052-3.404,1.488c-1.326,0.525-2.81,1.078-3.572,2.382l-0.188,0.31l-0.477,0.42
		c-0.23-0.307-0.468-0.609-0.705-0.906c0.327-0.405,0.638-0.819,0.96-1.228c0.581-0.762,1.467-1.179,2.157-1.821
		c1.002-0.908,2.024-1.795,3.092-2.623c0.905-0.707,1.643-1.615,2.615-2.232c1.816-0.872,3.082-2.528,4.846-3.475
		c0.772-0.442,1.447-1.022,2.118-1.6c1.163-1.009,2.55-1.729,3.636-2.83c0.824-0.844,1.803-1.499,2.711-2.24
		c0.787-0.636,1.38-1.459,2.009-2.242c0.623-0.781,1.536-1.271,2.118-2.09c0.465-0.673,0.51-1.52,0.609-2.304l0.01-0.095
		c0.863-0.612,1.633-1.336,2.39-2.071L47.652,170.756z"/>
	<path id="Shape_24_" fill="#F6941E" stroke="#F6941E" stroke-width="0.094" d="M16.79,198.844c0.391,0.42,0.782,0.864,0.992,1.411
		l0.22,0.808c-0.752,0.842-1.081,1.938-1.497,2.968c-0.618,1.528-2.174,2.272-3.283,3.382c-0.764,0.829-1.897,1.072-2.83,1.645
		c-0.767,0.449-1.573,0.868-2.461,0.996c-1.358,0.301-2.736-0.265-4.089,0.125c-0.524-0.693-0.893-1.496-0.98-2.367
		c0.989-0.77,1.863-1.68,2.716-2.597c0.693-0.754,1.041-1.749,1.675-2.546c0.591-0.717,1.494-1.032,2.306-1.416
		c1.378-0.602,2.726-1.406,4.26-1.491C14.88,199.749,15.892,199.398,16.79,198.844z"/>
</g>
<g sketch:type="MSShapeGroup">
	<path id="Shape_25_" fill="#7D4B0F" stroke="#7D4B0F" stroke-width="0.094" d="M39.083,9.716l-0.042-0.287
		c0.46,1.122,0.51,2.351,0.668,3.54c0.171,0.999-0.339,1.949-0.95,2.69c-0.678,0.422-1.484,0.555-2.241,0.769
		c-0.49-0.396-0.999-0.892-1.682-0.832c-0.643,0.337-0.502,1.117-0.512,1.721c-1.264-0.115-2.451-0.577-3.636-0.994
		c-1.464-0.477-2.219-1.954-3.02-3.16c1.002,0.542,2.053,0.984,3.102,1.419c1.299,0.56,2.741,0.572,4.126,0.505
		c1.937-0.032,3.114-1.806,4.532-2.878l-0.304-2.246L39.083,9.716L39.083,9.716z"/>
	<path id="Shape_26_" fill="#7D4B0F" stroke="#7D4B0F" stroke-width="0.094" d="M241.497,72.948l0.289,0.455
		c-0.364,1.244-0.586,2.611-1.531,3.572c-0.978,1.339-2.553,1.991-4.015,2.616c-1.014-0.067-2.08-0.152-3.018-0.56l0.152-0.659
		l0.148,0.365l0.099,0.137c0.601,0.34,1.194-0.365,1.761-0.557c1.316-0.817,3.369-0.47,4.131-2.086
		c0.469-1.087,1.258-1.959,2.068-2.793l-0.087-0.49H241.497z"/>
	<path id="Shape_27_" fill="#7D4B0F" stroke="#7D4B0F" stroke-width="0.094" d="M214.111,90.827
		c4.428-2.755,8.27-6.582,13.267-8.319c-1.696,2.166-4.077,3.592-6.362,5.036c-2.224,1.132-3.904,3.08-6.093,4.269
		c-2.088,1.092-3.812,2.733-5.682,4.132c-0.116-0.332-0.233-0.662-0.31-1.002l0.28,0.227
		C210.238,93.124,212.279,92.01,214.111,90.827L214.111,90.827z"/>
	<path id="Shape_28_" fill="#7D4B0F" stroke="#7D4B0F" stroke-width="0.094" d="M57.005,175.47l0.126-0.052
		c0.235,1.516,0.994,3.412-0.233,4.689c-1.699,1.209-3.664,1.969-5.484,2.968c-1.106,0.672-2.315,1.142-3.453,1.754
		c-0.881,0.462-1.756,0.948-2.701,1.267c-2.667,0.812-4.767,2.79-7.337,3.83l-4.403,2.096c-4.589,1.895-8.881,4.484-13.613,6.016
		l-0.153-0.252c0.762-1.305,2.246-1.856,3.572-2.381c1.16-0.438,2.194-1.178,3.404-1.489c2.078-0.567,4.015-1.549,5.934-2.517
		c1.259-0.609,2.31-1.578,3.584-2.16c2.212-0.999,4.188-2.428,6.301-3.605c2.103-1.062,4.257-2.103,6.016-3.707
		c1.375-1.031,2.592-2.258,3.983-3.265C53.995,177.544,55.205,176.033,57.005,175.47L57.005,175.47z"/>
	<path id="Shape_29_" fill="#7D4B0F" stroke="#7D4B0F" stroke-width="0.094" d="M58.994,175.982c0.732,0.27,1.497,0.427,2.251,0.629
		c0.725,0.19,1.271,0.768,1.974,1.013c1.012,0.205,2.08,0.097,3.062,0.462c0.992,0.367,1.937,0.864,2.971,1.112
		c1.16,0.271,2.207,0.847,3.258,1.386c0.844,0.432,1.813,0.396,2.733,0.45c0.059-0.904,0.109-1.814,0.005-2.718
		c0.522,1.231,0.111,2.543,0.017,3.81c-0.178,2.116-0.522,4.252-1.346,6.218c-0.374,0.965-1.205,1.596-1.974,2.227
		c-1.813-0.133-3.646-0.455-5.291-1.264c-2.427-1.149-4.895-2.227-7.481-2.955c-1.821-0.737-3.708-1.451-5.2-2.785
		c1.113-0.59,2.357-0.959,3.33-1.797c0.566-0.517,1.41-0.869,1.591-1.69c0.46-1.326,0.284-2.738,0.099-4.095L58.994,175.982z"/>
	<path id="Shape_30_" fill="#7D4B0F" stroke="#7D4B0F" stroke-width="0.094" d="M17.782,200.256
		c0.156,0.212,0.294,0.438,0.413,0.678c-0.257,2.784-1.61,5.317-3.211,7.551c-0.448,0.558-1.101,0.883-1.692,1.26
		c-1.291,0.752-2.4,1.906-3.918,2.183c-1.954,0.332-4.284-0.04-5.531-1.749c1.353-0.39,2.731,0.176,4.089-0.125
		c0.888-0.127,1.694-0.547,2.461-0.996c0.933-0.572,2.066-0.814,2.83-1.645c1.108-1.109,2.664-1.854,3.283-3.382
		c0.416-1.029,0.745-2.126,1.497-2.968L17.782,200.256L17.782,200.256z"/>
</g>
<path id="Shape_31_" sketch:type="MSShapeGroup" opacity="0.81" fill="#0C0606" stroke="#0C0606" stroke-width="0.094" enable-background="new    " d="
	M37.624,20.548c-0.769-0.212,0.24-0.992,0.299-0.21l-0.092,0.2L37.624,20.548L37.624,20.548z"/>
<g sketch:type="MSShapeGroup">
	<path id="Shape_32_" fill="#99987D" stroke="#99987D" stroke-width="0.094" d="M37.623,20.548l0.208-0.01l3.085,3.352
		c0.784,0.562,1.318,1.369,1.769,2.211c0.589-0.047,1.18-0.052,1.771-0.06c1.217,0,2.36-0.485,3.468-0.947
		c1.306-0.55,2.563-1.229,3.693-2.096c1.177,2.321,1.558,4.921,2.367,7.377c0.289,1.027,0.374,2.103,0.72,3.113
		c0.252,0.577,0.623,1.094,0.918,1.651c0.898,0.05,2.033-0.027,2.508-0.939c0.735-1.229,1.67-2.331,2.296-3.625
		c0.638-1.287,1.511-2.433,2.162-3.712c1.395,0.047,2.236-1.237,3.186-2.061l0.23,0.917c0.505,2.815-0.114,5.701,0.297,8.531
		c0.235,1.441-0.052,2.938,0.411,4.342c1.652,1.981,3.579,3.707,5.182,5.736c0.868,1.124,2.063,1.936,2.877,3.11
		c1.427,1.654,2.625,3.497,4.116,5.094c0.933,1.576,2.177,2.923,3.312,4.349c1.38,1.312,2.763,2.673,3.74,4.332
		c-0.312,0.747-1.17,1.107-1.845,1.481c-0.287-0.732-0.643-1.444-1.187-2.016c-2.622-3.035-5.113-6.185-7.782-9.176
		c-1.004-1.229-1.732-2.68-2.887-3.78c-0.957-1.039-1.746-2.228-2.766-3.21c-0.957-1.029-2.122-1.854-2.959-3
		c-0.596-0.822-1.459-1.419-1.996-2.288c-0.087-0.679-0.049-1.369-0.161-2.046c-0.245-1.312,0.072-2.635,0.045-3.957
		c0.104-1.754,0.002-3.512,0.104-5.268l-0.72-0.402c-0.289,0.247-0.653,0.432-0.856,0.764c-2.019,4.159-4.067,8.321-6.533,12.236
		c-1.217-1.411-2.382-2.915-3.003-4.704c-0.336-0.939-0.715-1.869-0.883-2.858c-0.307-1.812-1.521-3.377-1.477-5.266
		c0.025-0.774-0.383-1.446-0.767-2.081l-0.784,0.025l-0.829,1.057c-0.91-0.744-2.019-0.23-3.001,0.032
		c-1.39,0.35-2.442,1.424-3.792,1.879c-0.648-1.376-1.647-2.548-2.256-3.944C38.963,23.302,38.357,21.893,37.623,20.548
		L37.623,20.548z"/>
	<path id="Shape_33_" fill="#99987D" stroke="#99987D" stroke-width="0.094" d="M132.923,59.54c1.563,0.33,3.087,0.824,4.616,1.294
		c1.549,0.322,3.045,0.882,4.435,1.639c0.935,0.679,1.962,1.212,2.973,1.764c1.897,0.974,3.414,2.523,5.138,3.76
		c0.955,0.957,1.771,2.058,2.788,2.963c1.499,1.331,2.617,3.018,3.839,4.596c1.896,2.311,3.528,4.829,4.985,7.439
		c1.346,2.69,2.805,5.333,3.771,8.196l0.658-0.175c-0.031-1.159,0.189-2.428-0.445-3.465c-0.888-1.854-1.791-3.702-2.639-5.578
		c-1.904-3.597-4.475-6.772-7.139-9.818c-2.213-2.106-4.121-4.509-6.417-6.528c-1.425-1.466-3.409-2.153-4.905-3.525
		c1.368,0.295,2.644,0.894,4.007,1.207c1.759,0.4,3.06,1.771,4.668,2.518c1.685,0.802,2.823,2.388,4.495,3.203
		c0.91,0.462,1.781,1.007,2.588,1.641c1.118,0.874,2.444,1.481,3.414,2.548c0.668,0.657,1.128,1.519,1.891,2.078
		c1.105,0.62,2.332,1.002,3.571,1.249c1.573,1.706,2.996,3.55,4.616,5.211c1.284,1.037,2.219,2.421,3.426,3.54
		c0.811,0.929,1.942,1.511,2.699,2.496c1.497,1.914,2.354,4.234,3.842,6.155c1.887,3.035,2.746,6.558,3.98,9.885
		c2.298,4.437,3.184,9.41,4.689,14.134c0.151,0.942,0.406,1.864,0.631,2.79c0.26,1.619,0.275,3.269,0.268,4.904
		c0.176,1.651,0.48,3.302,0.421,4.971c-0.077,1.063-0.235,2.121-0.284,3.188l-0.336-0.01c-0.126-1.229-0.309-2.457-0.6-3.655
		c-0.381-1.494-0.135-3.128-0.893-4.522c-0.101-1.656-0.881-3.143-1.259-4.729c-0.292-2.116-1.099-4.104-1.759-6.118
		c-0.592-1.744-1.106-3.545-2.162-5.074c-0.861-1.601-2.165-2.885-3.114-4.424c-0.444-0.692-0.913-1.366-1.39-2.033
		c-1.186-1.614-2.733-2.89-4.088-4.349c-1.541-1.481-3.463-2.491-4.965-4.017c-0.949-0.769-2.112-1.197-3.181-1.766
		c-1.776-0.972-3.688-1.651-5.593-2.313c-1.034-0.357-1.759-1.359-2.85-1.549c-1.604-0.42-3.107,0.582-4.713,0.515
		c-1.677-0.07-3.272,0.565-4.941,0.525c-1.107,0.05-2.122,0.557-3.201,0.769c-1.024,0.202-1.915,0.767-2.872,1.152
		c-2.615,0.839-5.034,2.176-7.671,2.955c-1.69,0.28-3.097,1.331-4.752,1.709c-1.079,0.292-2.041,0.884-3.087,1.257
		c-1.618,0.56-3.134,1.434-4.423,2.568c-0.757,0.947-1.989,1.034-3.008,1.534c-1.024,0.49-2.179,0.615-3.181,1.162
		c-1.63,0.872-3.327,1.611-4.965,2.466c-1.445,0.954-3.003,1.754-4.299,2.92c-0.821,0.682-1.882,1.064-2.508,1.973
		c-1.682,2.168-4.24,3.35-6.061,5.366c-0.863-1.416-1.838-2.76-2.721-4.164c-1.717-2.258-3.926-4.052-6.08-5.866
		c-2.058-2.081-4.67-3.482-7.322-4.641c-2.677-1.551-5.657-2.401-8.571-3.36c-1.502-0.097-2.973-0.52-4.492-0.375
		c-1.902-0.125-3.763,0.387-5.66,0.285c-1.066,0.025-2.118,0.245-3.184,0.267c-1.403,0.05-2.672,0.694-3.993,1.097
		c0.121-0.16,0.23-0.332,0.366-0.477c1.675-0.46,3.364-0.957,5.113-0.987c0.826-0.012,1.771-0.17,2.214-0.969
		c1.662-2.703,3.535-5.258,5.286-7.896c1.054-1.526,2.758-2.373,3.948-3.767c0.804-1.009,2.162-1.247,3.062-2.146
		c1.009-0.989,2.491-1.234,3.483-2.246c1.014-1.039,2.325-1.671,3.495-2.501c1.338-1.152,2.8-2.141,4.208-3.2
		c2.33-1.376,4.898-2.293,7.191-3.737c1.383-0.762,2.79-1.474,4.111-2.346c2.046-1.302,4.455-1.859,6.481-3.198
		c1.457-0.932,3.095-1.516,4.611-2.341c1.492-0.807,3.191-1.009,4.826-1.339c1.605-0.325,3.238-0.477,4.863-0.645
		c1.759-0.162,3.34-1.062,5.083-1.302C129.609,60.043,131.289,59.938,132.923,59.54L132.923,59.54z M124.438,66.46
		c-1.091-0.002-2.127,0.402-3.211,0.495c-2.4,0.257-4.836,0.532-7.129,1.324c-2.825,1.349-6.031,2.283-8.136,4.754
		c-1.086,0.917-1.771,2.186-2.761,3.193c-1.177,1.237-1.915,2.813-3.045,4.084c-0.43,2.148-1.9,3.815-2.773,5.768
		c-0.895,1.761-1.915,3.56-2.058,5.578c-0.158,1.079-0.309,2.178-0.131,3.268c0.208,1.277,0.223,2.675,1.064,3.735
		c0.757,0.992,1.163,2.288,2.273,2.965c2.024,1.691,4.816,1.601,7.28,1.329c1.173-0.137,2.221-0.722,3.367-0.977
		c2.387-1.424,4.913-2.611,7.189-4.219c1.163-0.919,2.291-1.886,3.498-2.745c1.484-0.884,3.02-1.684,4.445-2.665
		c1.615-1.099,3.379-1.939,5.049-2.943c2.595-1.704,5.267-3.315,8.23-4.279c2.615-0.764,5.081-1.981,7.733-2.628
		c1.766-0.345,2.719-2.206,3.144-3.812c-0.057-2.593-1.222-5.116-3.117-6.867c-1.558-1.936-4.002-2.663-6.043-3.915
		c-1.981-0.402-3.965-0.807-5.986-0.944c-1.704-0.43-3.478-0.357-5.177-0.799c-1.227,0.177-2.466,0.257-3.703,0.302L124.438,66.46z"
		/>
	<path id="Shape_34_" fill="#99987D" stroke="#99987D" stroke-width="0.094" d="M69.579,99.238c2.466-0.29,5.044-0.3,7.379,0.664
		c1.44,0.62,3.013,0.819,4.46,1.414c1.895,0.762,3.884,1.321,5.667,2.346c1.487,0.969,3.127,1.759,4.329,3.113
		c3.013,2.693,6.199,5.376,8.136,9.016c0.292,0.607,0.876,1.127,0.821,1.855c0.116,1.123-0.351,2.168-0.497,3.261
		c-0.163,2.173-0.93,4.241-1.205,6.399c-0.124,2.008-0.319,4.01-0.299,6.025c-0.042,1.117-0.22,2.221-0.297,3.335
		c-0.062,0.749,0.304,1.431,0.542,2.121c0.329,1.087,0.139,2.251,0.317,3.364c0.374,2.664,0.925,5.299,1.2,7.977
		c0.094,1.139,0.472,2.238,0.505,3.387c-1.17-1.674-2.075-3.562-3.532-5.009c-1.558-1.329-2.842-2.944-4.366-4.312
		c-2.422-1.935-4.965-3.74-7.745-5.111c-2.278-0.789-4.151-2.413-6.407-3.223c-1.195-0.332-2.451-0.287-3.654-0.59
		c-1.692-0.44-3.458-0.133-5.173-0.4c-2.664-0.38-5.338,0.12-7.983,0.445c0.656-1.786,0.136-3.69,0.233-5.533
		c0.158-1.816-0.863-3.445-0.868-5.246c-0.017-1.602-0.537-3.12-0.851-4.669c-0.267-2.474-0.725-4.946-0.579-7.442
		c0.04-0.794,0.378-1.521,0.675-2.243c0.487-1.139,0.589-2.423,1.224-3.502c0.809-1.394,1.286-2.953,2.142-4.319
		c0.524-0.864,1.029-1.741,1.534-2.613c-0.339-0.022-0.675-0.05-1.012-0.062l-0.294-0.012C65.836,99.44,67.711,99.355,69.579,99.238
		L69.579,99.238z"/>
	<path id="Shape_35_" fill="#99987D" stroke="#99987D" stroke-width="0.094" d="M62.143,140.886c0.811-0.35,1.645,0.107,2.451,0.237
		c-0.893,0.117-1.892,0.025-2.639,0.625c-0.856,0.672-1.776,1.294-2.447,2.168c-0.287-0.234-0.564-0.48-0.841-0.719
		C59.446,141.975,60.851,141.383,62.143,140.886z"/>
	<path id="Shape_36_" fill="#99987D" stroke="#99987D" stroke-width="0.094" d="M77.124,153.629
		c0.391-0.794,1.041-1.434,1.826-1.826c1.843-0.35,3.807,0.092,5.373,1.124c0.945,0.605,1.615,1.526,2.31,2.392
		c-1.348-1.385-3.221-2.071-5.059-2.479C80.077,153.03,78.571,153.162,77.124,153.629z"/>
	<path id="Shape_37_" fill="#99987D" stroke="#99987D" stroke-width="0.094" d="M91.605,174.445
		c0.715,0.021,1.415,0.177,2.115,0.326c1.027,0.883,1.262,2.297,1.323,3.586c0.017,1.504-0.569,2.965-1.586,4.059
		C93.197,179.693,92.96,176.875,91.605,174.445L91.605,174.445z"/>
</g>
<g sketch:type="MSShapeGroup">
	<path id="Shape_38_" fill="#B3B39F" stroke="#B3B39F" stroke-width="0.094" d="M47.803,24.317c1.163-0.807,2.11-1.916,3.404-2.531
		l0.411,1.212c-1.13,0.867-2.387,1.546-3.693,2.096c-1.108,0.462-2.251,0.947-3.468,0.947
		C45.466,25.262,46.703,24.924,47.803,24.317L47.803,24.317z"/>
	<path id="Shape_39_" fill="#B3B39F" stroke="#B3B39F" stroke-width="0.094" d="M62.588,26.863c0.967-1.501,2.014-2.963,3.29-4.217
		c0.052,1.024,0.037,2.051,0.126,3.073l-0.23-0.917C64.824,25.626,63.983,26.91,62.588,26.863z"/>
	<path id="Shape_40_" fill="#B3B39F" stroke="#B3B39F" stroke-width="0.094" d="M121.707,59.183c1.492-0.03,2.951-0.372,4.44-0.455
		c1.284,0.167,2.59-0.385,3.849,0.042c0.965,0.3,1.959,0.482,2.926,0.769c-1.635,0.4-3.315,0.505-4.972,0.739
		c-1.744,0.24-3.325,1.139-5.083,1.302c-1.625,0.167-3.258,0.32-4.863,0.645c-1.635,0.33-3.335,0.532-4.826,1.339
		c-1.516,0.824-3.154,1.409-4.611,2.341c-2.026,1.339-4.435,1.896-6.481,3.198c-1.321,0.872-2.729,1.584-4.111,2.346
		c-2.293,1.444-4.861,2.361-7.191,3.737c-1.408,1.059-2.87,2.048-4.208,3.2c-1.17,0.829-2.481,1.461-3.495,2.501
		c-0.992,1.012-2.474,1.257-3.483,2.246c-0.9,0.899-2.259,1.137-3.062,2.146c-1.19,1.394-2.894,2.241-3.948,3.767
		c-1.751,2.638-3.624,5.194-5.286,7.896c-0.443,0.799-1.388,0.957-2.214,0.969c-1.749,0.03-3.438,0.527-5.113,0.987
		c1.066-2.041,2.464-3.87,3.951-5.608c1.163-1.159,2.38-2.261,3.508-3.457c2.162-1.983,4.423-3.877,6.306-6.143
		c1.375-1.197,2.674-2.503,4.223-3.475c0.44-0.347,1.024-0.147,1.534-0.175c0.121-0.452,0.235-0.904,0.346-1.356
		c2.461-1.289,4.873-2.673,7.354-3.932c3.436-2.066,6.978-3.959,10.578-5.721c2.38-1.509,5.108-2.278,7.612-3.535
		c0.51-0.809,1.482-1.012,2.234-1.511c1.38-0.874,2.959-1.336,4.448-1.978c1.511-0.222,2.763-1.179,4.247-1.499
		c1.828-0.33,3.513-1.274,5.395-1.324L121.707,59.183z"/>
	<path id="Shape_41_" fill="#B3B39F" stroke="#B3B39F" stroke-width="0.094" d="M140.698,59.933
		c1.482-0.135,2.983,0.065,4.425,0.397c1.368,0.669,2.827,1.114,4.188,1.799c1.776,0.984,3.448,2.143,5.214,3.148
		c1.371,0.707,2.563,1.724,4.018,2.273c2.254,1.376,4.355,3.028,6.221,4.909c0.663,0.567,1.391,1.057,1.996,1.689
		c0.784,0.839,1.823,1.416,2.454,2.401c-1.239-0.247-2.466-0.63-3.571-1.249c-0.763-0.56-1.223-1.421-1.891-2.078
		c-0.97-1.067-2.296-1.674-3.414-2.548c-0.806-0.635-1.677-1.179-2.588-1.641c-1.672-0.814-2.811-2.401-4.495-3.203
		c-1.608-0.747-2.909-2.118-4.668-2.518c-1.363-0.312-2.639-0.912-4.007-1.207c-0.799-0.287-1.415-0.919-2.184-1.269
		c-0.576-0.285-1.242-0.42-1.699-0.902L140.698,59.933z"/>
	<path id="Shape_42_" fill="#B3B39F" stroke="#B3B39F" stroke-width="0.094" d="M64.275,99.687c0.336,0.012,0.673,0.04,1.012,0.062
		c-0.505,0.872-1.009,1.749-1.534,2.613c-0.856,1.366-1.333,2.925-2.142,4.319c-0.636,1.079-0.737,2.363-1.224,3.502
		c-0.297,0.722-0.636,1.449-0.675,2.243c-0.146,2.496,0.312,4.969,0.579,7.442c0.314,1.549,0.834,3.067,0.851,4.669
		c0.005,1.801,1.027,3.43,0.868,5.246c-0.096,1.844,0.423,3.746-0.233,5.533l-0.032,0.115c-0.304,0.1-0.606,0.209-0.905,0.319
		c-0.594,0.002-1.175,0.106-1.727,0.325c-0.069-2.283-1.054-4.409-1.148-6.686c-0.287-1.914-1.314-3.621-1.504-5.558
		c-0.331-2.885-1.029-5.751-0.876-8.673c0.445-3.342,0.653-6.735,1.563-9.995c0.408-1.234,0.905-2.441,1.442-3.625
		c0.307-0.662,1.14-0.669,1.734-0.899C61.647,100.356,62.941,99.929,64.275,99.687z"/>
</g>
<g sketch:type="MSShapeGroup">
	<path id="Shape_43_" fill="#4E4D3F" stroke="#4E4D3F" stroke-width="0.094" d="M45.653,26.755c0.982-0.262,2.09-0.777,3.001-0.032
		c-1.84,1.421-4.203,1.871-6.063,3.273c-0.252-0.45-0.497-0.902-0.73-1.361C43.212,28.18,44.263,27.106,45.653,26.755L45.653,26.755
		z"/>
	<path id="Shape_44_" fill="#4E4D3F" stroke="#4E4D3F" stroke-width="0.094" d="M53.393,35.846c0.621,1.789,1.786,3.292,3.003,4.704
		c-0.46,0.585-0.945,1.149-1.467,1.681C54.511,40.078,53.781,38.002,53.393,35.846z"/>
	<path id="Shape_45_" fill="#4E4D3F" stroke="#4E4D3F" stroke-width="0.094" d="M158.057,91.291
		c1.864-0.487,3.844-0.295,5.672,0.235c1.362,0.804,2.945,1.049,4.351,1.759c1.744,0.674,2.956,2.216,4.633,3.013
		c0.726,0.325,1.263,0.929,1.802,1.499c1.199,1.299,2.543,2.453,3.922,3.55c0.668,0.512,1.074,1.269,1.545,1.954
		c0.851,1.299,1.771,2.553,2.646,3.837c0.947,1.369,2.09,2.608,2.84,4.109c0.581,1.074,0.881,2.267,1.381,3.377
		c0.904,1.972,1.449,4.084,1.99,6.181c0.482,1.87,1.398,3.635,1.544,5.588c0.119,1.41,0.757,2.707,0.896,4.116
		c-0.877-0.807-1.536-1.819-1.989-2.92c-0.476-1.179-1.494-1.985-2.147-3.05l-0.468-0.27c-0.44-0.994-1.346-1.642-1.929-2.537
		c-1.174-1.795-2.93-3.077-4.594-4.371c-0.814-0.784-1.774-1.375-2.689-2.023c-4.047-3.27-8.883-5.493-13.941-6.6
		c-1.088-0.22-2.113-0.694-3.219-0.827c-4.531-0.467-9.107-0.342-13.623,0.237c-1.929,0.15-3.488,1.451-5.331,1.916
		c-1.986,0.952-3.819,2.238-5.912,2.963c-2.496,1.284-4.858,2.825-7.379,4.067c-1.291,0.633-2.437,1.531-3.753,2.116
		c-0.688,0.308-1.363,0.647-1.999,1.058c-1.818,1.168-3.718,2.202-5.553,3.347c-2.419,1.495-5.022,2.685-7.332,4.362
		c-1.056,0.767-2.231,1.375-3.179,2.293c-0.957,0.941-2.066,1.715-2.973,2.709c-1.012,1.107-2.427,1.816-3.169,3.17
		c-0.475-3.055-0.292-6.185,0.366-9.197c0.505-2.928,0.957-5.871,1.828-8.717c0.069-0.219,0.183-0.414,0.341-0.582
		c1.808-2.115,4.156-3.67,5.927-5.822c0.359-0.442,0.742-0.864,1.143-1.267c1.098-0.11,1.89-0.932,2.783-1.491
		c3.174-2.118,6.516-4.02,10.11-5.312c1.635-0.824,3.325-1.536,4.933-2.413c2.694-1.386,5.657-2.143,8.307-3.62
		c1.138-0.352,2.162-0.957,3.228-1.471c2.315-0.769,4.663-1.484,6.83-2.63c2.118-0.787,4.267-1.581,6.534-1.784
		c1.85-0.455,3.781-0.08,5.627-0.552H158.057z"/>
	<path id="Shape_46_" fill="#4E4D3F" stroke="#4E4D3F" stroke-width="0.094" d="M133.163,96.887
		c1.655-0.377,3.062-1.429,4.752-1.709c-1.014,1.079-2.484,1.444-3.79,2.026c-1.049,0.46-2.13,0.847-3.201,1.252
		c-1.764,0.732-3.401,1.801-5.271,2.256c1.289-1.134,2.805-2.008,4.423-2.568C131.122,97.772,132.085,97.18,133.163,96.887
		L133.163,96.887z"/>
	<path id="Shape_47_" fill="#4E4D3F" stroke="#4E4D3F" stroke-width="0.094" d="M104.181,163.883
		c0.591,0.643,0.75,1.539,1.173,2.286c0.683,1.228,1.276,2.508,2.024,3.7c1.427,2.117,2.521,4.443,3.817,6.645
		c0.542,0.864,0.549,1.926,0.881,2.873c0.364,1.127,0.93,2.252,0.868,3.467c-0.957,2.102-3.468,2.297-5.452,2.551
		c-1.42,0.096-2.892,0.543-4.289,0.093c0.527-2.558,0.448-5.196,1.017-7.742c0.319-2.785,0.329-5.591,0.317-8.389
		c0.188-1.839-0.124-3.667-0.354-5.483H104.181z"/>
</g>
<path id="Shape_48_" sketch:type="MSShapeGroup" opacity="0.28" fill="#040202" stroke="#040202" stroke-width="0.094" enable-background="new    " d="
	M170.464,28.301c0.433-0.13,0.576,0.595,0.158,0.694C170.177,29.137,170.027,28.39,170.464,28.301z"/>
<g sketch:type="MSShapeGroup">
	<path id="Shape_49_" fill="#D6D6C7" stroke="#D6D6C7" stroke-width="0.094" d="M88.384,61.501c0.245-0.24,0.581-0.255,0.903-0.232
		c0.139,0.327,0.287,0.65,0.448,0.969c-1.697,1.371-3.77,2.136-5.638,3.228c-0.398-0.067-0.559-0.44-0.71-0.764
		C85.19,63.87,86.786,62.674,88.384,61.501L88.384,61.501z"/>
	<path id="Shape_50_" fill="#D6D6C7" stroke="#D6D6C7" stroke-width="0.094" d="M93.613,65.129c1.103-0.472,2.15-1.069,3.095-1.819
		c1.67-0.092,3.32,0.197,4.97,0.412c1.103-0.042,2.231-0.025,3.307-0.322l-0.304,0.42c-1.15,0.482-2.296,0.974-3.448,1.449
		c-0.628,0.155-1.254,0.335-1.858,0.575l-0.106-0.07l-0.584-0.372c-0.846,0.252-1.682,0.557-2.555,0.684
		c-0.705,0.117-1.321-0.332-1.929-0.612c-1.472,0.962-2.857,2.051-4.324,3.023c-1.516,1.067-3.191,1.901-4.591,3.135
		c-1.343,1.022-2.674,2.323-4.45,2.411l0.126-0.674c0.349-0.625,1.046-0.897,1.652-1.197c1.526-0.605,2.751-1.746,4.218-2.463
		c1.296-0.862,2.696-1.569,3.899-2.573c0.92-0.729,2.031-1.187,2.884-2.006L93.613,65.129z"/>
	<path id="Shape_51_" fill="#D6D6C7" stroke="#D6D6C7" stroke-width="0.094" d="M180.624,81.057c1.212-0.26,2.464-0.267,3.692-0.14
		c1.832,0.49,3.64,1.079,5.463,1.606c1.08,0.242,1.779,1.199,2.424,2.031c-0.448-0.017-0.893-0.01-1.336-0.002
		c-0.569-0.724-1.499-0.595-2.301-0.557c-0.524-1.344-2.467-1.339-3.231-0.237c-1.481-0.095-2.972-0.222-4.448-0.027
		c-1.246,0.157-2.6-0.247-3.273-1.386c0.842-0.24,1.707-0.352,2.556-0.552c0.163-0.237,0.313-0.482,0.453-0.734L180.624,81.057z"/>
	<path id="Shape_52_" fill="#D6D6C7" stroke="#D6D6C7" stroke-width="0.094" d="M59.531,137.536
		c0.893-0.261,1.793-0.507,2.709-0.685c0.188,0.287,0.562,0.537,0.49,0.928c-0.675,0.687-1.432,1.291-2.056,2.033
		c-0.952,0.517-1.86,1.108-2.669,1.838c-0.705,0.48-1.348,1.055-1.816,1.779c-0.863,1.279-2.15,2.221-2.87,3.605
		c-0.925,1.726-2.075,3.492-1.922,5.551c0.443,0.135,0.886,0.28,1.336,0.4l-0.767-0.086c-1.148-0.256-2.313,0.045-3.466,0.113
		c0.757-1.602,2.1-2.871,2.701-4.548c0.994-0.932,1.437-2.268,2.286-3.315c1.759-2.516,3.664-4.969,5.986-6.981L59.531,137.536
		L59.531,137.536z"/>
</g>
<g sketch:type="MSShapeGroup">
	<path id="Shape_53_" fill="#C7C7B3" stroke="#C7C7B3" stroke-width="0.094" d="M89.735,62.238c0.707,0.702,1.009,1.689,1.652,2.441
		c-0.477,0.2-0.933,0.46-1.323,0.802c-1.326,1.122-2.8,2.048-4.275,2.95c-0.361-1.124-1.074-2.048-1.905-2.86l0.213-0.105
		C85.965,64.374,88.038,63.61,89.735,62.238z"/>
	<path id="Shape_54_" fill="#C7C7B3" stroke="#C7C7B3" stroke-width="0.094" d="M89.876,68.496c1.467-0.972,2.852-2.061,4.324-3.023
		c0.609,0.28,1.224,0.729,1.929,0.612c0.873-0.127,1.709-0.432,2.555-0.684l0.584,0.372c-1.462,0.757-2.909,1.541-4.302,2.418
		c-0.586,0.477-1.051,1.122-1.761,1.426c-1.029,0.425-1.944,1.079-2.959,1.536c-1.321,0.592-2.296,1.784-3.693,2.218
		c-2.066,0.964-4.077,2.046-6.093,3.105c0.134-1.039-0.037-2.161,0.5-3.11l-0.126,0.674c1.776-0.087,3.107-1.389,4.45-2.411
		c1.4-1.234,3.075-2.068,4.591-3.135L89.876,68.496z"/>
	<path id="Shape_55_" fill="#C7C7B3" stroke="#C7C7B3" stroke-width="0.094" d="M177.242,82.828c-0.213-0.3,0.188-0.355,0.374-0.485
		c0.673,1.139,2.026,1.544,3.272,1.386c1.478-0.195,2.967-0.067,4.448,0.027c-0.638,1.631-0.606,3.532,0.195,5.099
		c0.628,1.267,1.452,2.64,2.86,3.118c1.143,0.355,2.319-0.19,3.262-0.819c0.619-0.462,1.307-1.099,1.24-1.951
		c0.092-1.804-1.225-3.175-2.026-4.651c0.442-0.007,0.888-0.015,1.336,0.002c1.489,0.722,2.348,2.201,3.522,3.3
		c1.498,1.569,2.418,3.567,3.691,5.306c1.182,2.111,2.118,4.349,3.082,6.57c0.852,2.003,1.549,4.082,1.915,6.235
		c0.923,2.963,1.247,6.085,0.994,9.182c-0.611,0.177-0.495,0.789-0.423,1.276l0.897,0.478c-0.304,0.812-0.606,1.625-0.952,2.42
		c-0.875,0.908-2.033,1.435-3.058,2.137c-1.962,1.355-4.284,2.436-6.72,2.156c0.109-1.85-0.355-3.646-1.051-5.342
		c-0.756-1.83-0.941-3.836-1.729-5.652c-1.044-2.621-1.422-5.481-2.741-7.991c-0.741-1.876-1.241-3.847-2.077-5.688
		c-0.802-1.754-1.158-3.702-2.193-5.348c-0.803-1.202-1.469-2.501-2.396-3.612c-0.021-0.375-0.045-0.749-0.054-1.122
		c-0.623-0.794-1.22-1.611-1.868-2.381c-1.244-1.239-2.652-2.311-3.802-3.647L177.242,82.828z M192.71,96.135
		c-0.181,0.435-0.364,0.869-0.563,1.294c-0.195,1.197-0.064,2.396,0.254,3.557c0.233,1.696,1.289,3.103,2.293,4.424
		c0.789,1.022,2.195,0.949,3.348,0.907c0.98-0.779,1.932-1.659,2.434-2.843c-0.433-1.684-1.301-3.19-2.132-4.694
		c-0.581-0.987-1.509-1.754-2.625-2.021C195.07,95.727,193.717,95.587,192.71,96.135L192.71,96.135z M198.741,111.049
		c-0.623,0.21-1.05,0.797-1.415,1.319c-0.989,1.709-1.314,3.862-0.594,5.735c0.33,1.334,1.348,2.898,2.904,2.695
		c1.176,0.098,2.168-0.654,3.074-1.307c1.071-0.84,0.997-2.361,0.895-3.585c-0.25-1.002,0.174-2.269-0.762-2.995
		C201.648,112.005,200.328,110.914,198.741,111.049L198.741,111.049z"/>
	<path id="Shape_56_" fill="#C7C7B3" stroke="#C7C7B3" stroke-width="0.094" d="M62.148,136.739c1.074-0.058,2.12-0.335,3.189-0.466
		c1.558-0.129,3.127-0.049,4.69-0.047c1.999,0.075,3.965,0.516,5.964,0.607c1.732,0.15,3.31,0.975,4.769,1.874
		c2.298,1.414,4.886,2.303,7.077,3.896c1.89,1.207,3.624,2.664,5.175,4.289c1.363,1.608,3.184,2.787,4.297,4.615
		c1.19,1.514,1.892,3.32,2.803,5.001c0.495,1.159,0.925,2.349,1.336,3.542c0.589,1.901,1.106,3.842,1.239,5.838
		c0.082,0.601-0.376,1.064-0.698,1.517c-1.012,1.241-2.028,2.48-2.964,3.784c-0.886,1.26-1.979,2.356-2.83,3.646l-0.421-0.132
		c-0.51-1.197-1.838-1.586-2.978-1.881c-1.61-0.086-3.199,0.57-4.44,1.578c-1.378,1.371-1.398,3.412-1.793,5.195l-0.317,0.719
		c-0.915,0.285-1.865,0.401-2.79,0.625c-1.991,0.64-4.101,0.863-6.184,0.781l-0.183,0.047c-0.025-1.391-0.23-2.765-0.346-4.144
		c-0.421-1.117-0.505-2.308-0.754-3.465c-0.45-1.464-0.784-2.983-1.561-4.317c-0.977-2.098-2.105-4.121-3.372-6.055
		c-0.893-1.157-1.942-2.182-2.887-3.295c-1.6-2.151-3.968-3.497-6.189-4.895c-1.39-0.834-2.996-1.137-4.482-1.735
		c-1.534-0.548-3.166-0.65-4.764-0.878c-0.45-0.119-0.893-0.264-1.336-0.399c-0.153-2.058,0.997-3.825,1.922-5.551
		c0.72-1.384,2.006-2.326,2.87-3.604c0.468-0.725,1.111-1.3,1.816-1.779c-0.416,0.901-0.092,1.934-0.468,2.853l0.515,0.282
		l-0.032,0.615c0.804,1.017,1.796,1.879,2.973,2.421c1.811,1.067,3.978,1.631,6.058,1.198c0.675-0.437,1.514-0.741,1.89-1.516
		c0.421-0.818,0.999-1.639,0.977-2.601c0.025-1.032-0.186-2.089-0.646-3.011c-0.836-1.123-2.231-1.561-3.461-2.082
		c-1.667-0.522-3.451-0.285-5.138,0.002c0.623-0.742,1.38-1.347,2.056-2.033c0.072-0.391-0.302-0.641-0.49-0.928L62.148,136.739
		L62.148,136.739z M76.805,151.323c-1.16,0.794-1.541,2.218-1.432,3.571c0.428,1.369,0.994,2.785,2.142,3.707
		c0.247,0.181,0.336,0.48,0.47,0.75c1.076,0.743,1.596,2.03,2.615,2.84c1.041,0.858,2.335,1.291,3.589,1.73
		c1.041,0.312,2.194,0.067,3.008-0.662c1.222-0.859,1.692-2.33,2.214-3.665c0.03-1.454,0.148-3.062-0.717-4.321
		c-0.933-1.287-1.858-2.644-3.201-3.535c-2.523-1.651-6.093-2.208-8.688-0.418V151.323z"/>
</g>
<path id="Shape_57_" sketch:type="MSShapeGroup" opacity="0.78" fill="#221C1B" stroke="#221C1B" stroke-width="0.094" enable-background="new    " d="
	M104.985,63.4c0.495,0.09-0.03,0.809-0.304,0.42L104.985,63.4z"/>
<path id="Shape_58_" sketch:type="MSShapeGroup" opacity="0.69" fill="#190E08" stroke="#190E08" stroke-width="0.094" enable-background="new    " d="
	M193.827,83.422c0.319-0.14,0.522-0.032,0.61,0.315l-0.262,0.1C193.83,83.859,193.713,83.722,193.827,83.422z"/>
<g sketch:type="MSShapeGroup">
	<path id="Shape_59_" fill="#FC0101" stroke="#FC0101" stroke-width="0.094" d="M186.697,85.173
		c1.645,1.252,2.682,3.088,3.771,4.806c-0.531,0.197-1.18,0.595-1.722,0.21c-1.722-0.964-2.39-3.14-2.052-5.016H186.697z"/>
	<path id="Shape_60_" fill="#FC0101" stroke="#FC0101" stroke-width="0.094" d="M195.338,103.762
		c-1.15-1.696-2.199-3.76-1.605-5.868c0.6,0.137,1.19,0.335,1.734,0.632l-0.762,0.017c1.291,1.891,2.585,3.937,2.639,6.315
		c-0.699-0.285-1.494-0.5-2.006-1.097V103.762z"/>
	<path id="Shape_61_" fill="#FC0101" stroke="#FC0101" stroke-width="0.094" d="M199.157,119.422
		c-1.712-1.525-1.897-4.395-0.388-6.118c1.021,1.385,1.66,3.163,1.244,4.894C199.966,118.734,199.479,119.052,199.157,119.422z"/>
	<path id="Shape_62_" fill="#FC0101" stroke="#FC0101" stroke-width="0.094" d="M60.664,145.41c0.552-1.082,1.576-1.819,2.503-2.553
		c1.45-0.365,2.971-0.022,4.43,0.185c0.717,0.683,0.75,1.749,0.351,2.613c-0.215,0.997-1.118,1.784-2.127,1.834
		c-1.192,0.1-2.323-0.388-3.384-0.878C61.804,146.292,61.091,146.012,60.664,145.41L60.664,145.41z"/>
	<path id="Shape_63_" fill="#FC0101" stroke="#FC0101" stroke-width="0.094" d="M78.017,154.98c1.098-0.605,2.424-0.535,3.636-0.49
		c2.469,0.316,4.168,2.316,5.855,3.953c0.002,1.494-0.646,3.381-2.202,3.848c-2.033-0.141-3.876-1.369-5.039-3.027
		c-0.398-0.638-1.029-1.043-1.722-1.285l-0.087-0.564c-0.562-0.596-1.541-1.904-0.443-2.436L78.017,154.98z"/>
	<path id="Shape_64_" fill="#FC0101" stroke="#FC0101" stroke-width="0.094" d="M88.599,177.386
		c0.198-0.917,0.789-1.674,1.452-2.303c1.398,2.228,1.764,4.961,1.596,7.552c-0.49,0.43-0.957,0.889-1.393,1.379
		c-1.687,0.213-2.944-1.973-2.254-3.432C88.364,179.55,88.27,178.43,88.599,177.386L88.599,177.386z"/>
</g>
<g sketch:type="MSShapeGroup">
	<path id="Shape_65_" fill="#97967C" stroke="#97967C" stroke-width="0.094" d="M188.229,85.203c0.547,0.12,1.217,0.135,1.576,0.647
		c0.549,0.707,0.988,1.499,1.367,2.313C190.105,87.266,189.247,86.155,188.229,85.203z"/>
	<path id="Shape_66_" fill="#97967C" stroke="#97967C" stroke-width="0.094" d="M193.732,97.894
		c0.113-0.232,0.244-0.455,0.402-0.659c1.276,0.732,2.491,1.681,3.143,3.05c0.481,1.079,1.269,2.016,1.558,3.18
		c-0.792-0.852-0.908-2.103-1.667-2.983c-0.579-0.645-1.168-1.279-1.702-1.956C194.922,98.229,194.331,98.031,193.732,97.894z"/>
	<path id="Shape_67_" fill="#97967C" stroke="#97967C" stroke-width="0.094" d="M200.503,113.137
		c1.843,0.767,1.974,3.134,1.405,4.798l-0.383,0.181c-0.006-0.817,0.052-1.642-0.064-2.451
		C201.225,114.793,200.777,113.996,200.503,113.137L200.503,113.137z"/>
</g>
<g sketch:type="MSShapeGroup">
	<path id="Shape_68_" fill="#65655B" stroke="#65655B" stroke-width="0.094" d="M194.104,118.271c0.694,1.695,1.16,3.492,1.051,5.34
		c2.434,0.281,4.757-0.799,6.719-2.155c1.023-0.702,2.182-1.229,3.059-2.136c-0.214,1.309-1.339,2.146-1.828,3.33
		c-1.225,2.68-3.242,4.863-5.136,7.066c-0.962,0.641-1.811,1.419-2.653,2.206c-0.072-1.252,0.092-2.511-0.14-3.75
		c-0.321-1.823-0.01-3.68-0.194-5.513C195.012,121.136,194.25,119.768,194.104,118.271L194.104,118.271z"/>
	<path id="Shape_69_" fill="#65655B" stroke="#65655B" stroke-width="0.094" d="M101.448,160.051
		c1.187,2.227,1.415,4.826,1.526,7.307c-0.329,2.078-0.208,4.183-0.21,6.278c0.119,2.356-0.586,4.642-0.698,6.982
		c-0.069,1.299-0.292,2.586-0.544,3.862c-0.49,0.481-0.908,1.039-1.405,1.516c-0.678,0.445-1.516,0.457-2.293,0.547
		c-1.276,1.057-2.887,1.516-4.433,1.991c-1.187,0.295-2.353,0.692-3.565,0.854c-2.194,0.321-4.421,0.334-6.602,0.741
		c-2.753,0.136-5.484,0.513-8.218,0.843c0.71-2.052,1.341-4.143,1.704-6.289c0.181-0.964,0.012-1.996,0.378-2.918l0.183-0.047
		c2.083,0.082,4.193-0.142,6.184-0.781c0.925-0.223,1.875-0.34,2.79-0.625l0.317-0.72c-0.265,1.029-0.524,2.106-0.327,3.173
		c0.25,1.371,1.291,2.621,2.654,2.959c1.301,0.229,2.714,0.069,3.852-0.641c3.542-1.855,4.952-6.882,3.033-10.382l0.421,0.132
		c0.851-1.289,1.944-2.386,2.83-3.645c0.935-1.305,1.952-2.543,2.964-3.785c0.322-0.452,0.779-0.918,0.698-1.516
		C102.553,163.893,102.036,161.951,101.448,160.051L101.448,160.051z"/>
</g>
<path id="Shape_70_" sketch:type="MSShapeGroup" opacity="0.56" fill="#090405" stroke="#090405" stroke-width="0.094" enable-background="new    " d="
	M190.518,130.729l0.756,0.026c0.047,0.662,0.104,1.326,0.203,1.986C191.133,132.079,191.005,131.307,190.518,130.729z"/>
<path sketch:type="MSShapeGroup" fill="#4B493B" stroke="#4B493B" stroke-width="0.094" d="M98.074,136.667
	c0.077-1.114,0.255-2.218,0.297-3.335c-0.027,1.824,0.339,3.63,0.245,5.456C98.379,138.1,98.012,137.417,98.074,136.667z"/>
<path sketch:type="MSShapeGroup" fill="#FFFFFF" d="M171.012,203.427l-10.861,5.351l-0.096-40.572l-9.601,10.411l-4.073,23.351
	l-8.727,4.865l3.297-65.676l7.564-4.477l-1.164,42.616c3.038-4.8,5.786-8.399,8.242-10.8c0.776-0.778,2.005-1.979,3.685-3.6
	c2.07-1.946,4.429-2.92,7.08-2.92c2.779,0,4.428,0.649,4.944,1.946c0.841,2.205,1.261,5.513,1.261,9.925
	c0,5.188-0.258,11.416-0.775,18.68l-0.776,10.897L171.012,203.427z M196.516,201.48c-4.914,0-9.375-1.103-13.383-3.308
	c-4.912-2.724-7.369-6.356-7.369-10.897c0-3.762,1.842-7.004,5.526-9.729c2.844-2.141,6.399-3.762,10.667-4.864
	c2.264-0.584,4.816-0.877,7.661-0.877c2.457,0,5.366,0.422,8.728,1.266c1.68,0.259,3.264,0.875,4.752,1.849
	c-1.293-2.724-3.686-5.124-7.177-7.2c-2.909-1.751-7.144-3.275-12.703-4.572c-1.938-0.455-4.622-0.974-8.048-1.558l-1.939-8.562
	c0.582,0,2.166,0.324,4.752,0.973c9.504,2.4,16.938,5.87,22.304,10.411c5.56,4.735,8.76,11.157,9.601,19.265v17.805l-4.656-0.584
	l-0.097-6.031c-1.552,1.492-3.329,2.757-5.333,3.795c-3.556,1.881-7.984,2.822-13.285,2.822V201.48z M199.618,185.523
	c-2.198,0.52-4.04,1.396-5.527,2.627c-1.745,1.492-2.618,3.276-2.618,5.352c0,3.503,2.521,5.254,7.564,5.254
	c2.65,0,5.236-0.681,7.758-2.043c3.038-1.622,4.559-3.665,4.559-6.13c0-0.324-0.065-0.746-0.194-1.265
	c-0.711-2.789-3.362-4.185-7.952-4.185h-1.455C201.493,185.134,200.782,185.264,199.618,185.523L199.618,185.523z M262.357,194.475
	c-3.168,2.076-8.242,3.827-15.225,5.254c-1.875,0.39-5.107,0.941-9.697,1.654l1.746,24.616l-6.789,0.584l-2.908-33.858l-3.395-0.39
	l-2.133-30.162c3.686-1.427,6.723-2.497,9.115-3.211c7.369-2.205,13.77-3.308,19.199-3.308c13.383,0,20.074,5.416,20.074,16.248
	c0,10.639-3.33,18.162-9.988,22.574V194.475z M251.884,179.491c-0.129-0.065-0.485-0.097-1.067-0.097
	c-1.81,0-4.815,0.291-9.018,0.875c-1.486,0.195-3.523,0.52-6.109,0.974l1.262,15.665c1.293-0.065,2.326-0.131,3.104-0.195
	c7.369-0.584,12.282-2.27,14.738-5.059c1.486-1.687,2.23-3.6,2.23-5.741C257.023,182.281,255.311,180.141,251.884,179.491z
	 M285.242,150.107c-2.264,0-4.202-0.52-5.818-1.558c-2.004-1.231-3.006-2.886-3.006-4.962c0-1.622,1.131-3.049,3.395-4.281
	c2.004-1.037,3.879-1.557,5.623-1.557c2.133,0,4.073,0.454,5.818,1.361c2.133,1.104,3.2,2.628,3.2,4.574
	c0,2.141-1.034,3.795-3.103,4.961c-1.746,0.974-3.783,1.459-6.109,1.459V150.107z M280.49,201.966l0.484-27.827l14.934-0.973
	l3.976,29.48L280.49,201.966z"/>
</svg>
